<svg width="808" height="631" viewBox="0 0 808 631" fill="none" xmlns="http://www.w3.org/2000/svg">
<path d="M118.6 213.804C127.978 206.179 140.676 205.075 152.267 207.178C164.648 209.387 175.924 215.329 187.357 220.324C199.159 225.53 211.171 229.263 224.133 229.894C237.041 230.578 249.949 228.738 262.489 225.583C288.675 219.01 312.7 206.39 337.832 196.872C350.424 192.087 363.438 187.933 376.821 186.04C384.092 184.988 391.415 184.725 398.739 185.514C405.694 186.25 412.49 187.88 419.287 189.563C434.303 193.296 449.266 196.557 464.651 198.397C480.51 200.29 496.527 200.921 512.491 200.395C513.492 200.343 513.492 198.765 512.491 198.818C483.513 199.869 454.535 196.767 426.4 189.773C412.965 186.408 399.635 182.937 385.672 183.621C372.132 184.305 358.749 187.88 345.999 192.245C320.445 201.026 296.42 213.909 270.498 221.744C257.326 225.688 243.68 228.422 229.876 228.475C215.861 228.527 202.689 225.267 189.886 219.693C177.241 214.225 164.859 207.441 151.108 205.338C139.411 203.55 126.924 204.97 117.493 212.647C116.703 213.331 117.809 214.488 118.6 213.804Z" fill="#E8E8E8"/>
<path d="M402.374 165.743C438.887 181.465 480.352 178.836 517.707 167.425C537.939 161.221 558.066 152.912 579.615 152.965C601.322 153.018 621.923 160.59 643.156 163.955C662.44 167.005 683.673 166.637 700.217 155.068C701.06 154.49 700.27 153.123 699.427 153.701C684.147 164.376 664.758 165.322 646.844 162.903C626.56 160.169 607.065 153.123 586.57 151.65C566.074 150.178 546.738 156.33 527.507 162.64C508.329 168.898 488.94 173.788 468.761 174.945C446.421 176.259 423.818 173.262 403.217 164.376C402.269 163.955 401.479 165.322 402.374 165.743Z" fill="#E8E8E8"/>
<path d="M98.473 296.833C110.012 288.63 123.658 283.582 137.778 282.215C144.838 281.531 151.951 281.794 158.906 283.004C166.124 284.266 173.078 286.684 179.981 289.103C192.784 293.52 205.481 296.886 218.969 293.783C230.613 291.101 241.151 285.054 251.477 279.323C263.648 272.539 276.293 265.598 290.414 264.336C291.415 264.231 291.415 262.654 290.414 262.759C265.229 265.02 246.314 283.897 222.815 291.101C216.862 292.942 210.645 293.888 204.428 293.52C196.788 293.047 189.359 290.681 182.193 288.209C174.975 285.738 167.757 283.056 160.17 281.636C153.637 280.427 146.945 280.059 140.36 280.48C125.08 281.426 110.17 286.632 97.6827 295.518C96.8397 296.044 97.63 297.411 98.473 296.833Z" fill="#E8E8E8"/>
<path d="M238.148 317.025C258.643 295.413 288.78 286.579 317.917 286.316C334.829 286.158 351.689 288.577 368.18 292.1C383.881 295.413 399.108 299.725 415.336 297.569C432.301 295.308 448.16 288.051 463.334 280.427C464.23 279.954 463.439 278.586 462.544 279.06C448.107 286.316 433.091 293.205 417.022 295.729C408.802 296.991 400.53 296.885 392.311 295.571C383.987 294.256 375.873 292.048 367.601 290.313C337.464 284.003 305.377 281.321 275.767 291.575C261.172 296.623 247.684 304.668 237.041 315.868C236.356 316.657 237.463 317.761 238.148 317.025Z" fill="#E8E8E8"/>
<path d="M482.354 332.747C490.942 335.745 499.741 332.958 507.592 329.224C516.39 325.018 524.662 319.812 533.672 316.078C542.681 312.345 552.376 309.821 562.176 311.03C571.133 312.135 579.405 316.131 587.255 320.39C594.684 324.439 602.007 328.856 609.911 331.959C618.709 335.377 628.193 337.007 637.624 336.796C656.961 336.376 673.399 326.753 691.049 320.233C707.54 314.133 729.511 311.399 742.736 325.701C743.421 326.437 744.527 325.333 743.842 324.597C733.463 313.397 716.919 312.135 702.693 315.132C684.147 319.023 668.13 330.329 649.479 333.957C639.521 335.902 629.089 335.639 619.236 333.273C610.069 331.065 601.849 326.753 593.63 322.178C586.201 318.024 578.667 313.712 570.5 311.241C562.018 308.664 553.166 308.612 544.578 310.715C534.093 313.292 524.452 318.392 515.02 323.545C505.273 328.804 493.998 335.219 482.67 331.275C481.827 330.907 481.406 332.432 482.354 332.747Z" fill="#E8E8E8"/>
<path d="M621.08 358.093C642.893 359.407 660.859 344.631 681.46 340.162C686.94 338.952 692.735 338.426 698.32 339.373C703.325 340.214 707.856 342.265 712.177 344.894C719.606 349.416 726.824 355.253 735.886 355.884C746.898 356.62 756.645 349.784 764.864 343.369C765.655 342.738 764.548 341.634 763.758 342.265C755.749 348.47 746.16 355.253 735.412 354.254C726.086 353.413 718.71 346.682 710.86 342.317C692.788 332.221 673.452 340.162 656.117 347.786C645 352.624 633.462 357.304 621.133 356.568C620.079 356.462 620.079 358.04 621.08 358.093Z" fill="#E8E8E8"/>
<path d="M123.763 458.632C131.403 451.375 142.731 448.536 152.899 451.323C163.542 454.215 170.391 463.364 178.927 469.674C195.945 482.242 219.127 480.244 237.831 472.829C259.907 464.1 278.295 448.326 300.319 439.439C311.067 435.075 322.711 432.288 334.408 433.076C345.788 433.865 355.483 438.755 364.492 445.381C373.449 451.954 381.879 459.736 392.364 463.89C403.586 468.307 416.231 467.361 426.769 461.524C427.664 461.051 426.874 459.683 425.978 460.157C415.23 466.099 402.374 466.624 391.152 461.682C381.774 457.528 374.081 450.587 365.915 444.487C357.537 438.23 348.633 433.339 338.096 431.867C327.242 430.395 316.178 432.235 305.904 435.653C283.406 443.172 264.86 458.684 243.522 468.623C223.817 477.825 198.474 482.137 179.77 468.307C170.444 461.419 163.121 451.586 151.108 449.272C140.939 447.326 130.138 450.376 122.657 457.528C121.919 458.211 123.025 459.368 123.763 458.632Z" fill="#E8E8E8"/>
<path d="M326.188 487.973C334.882 482.347 345.209 479.665 355.588 480.506C365.072 481.295 374.029 484.818 382.722 488.341C391.152 491.759 399.687 495.335 408.75 496.807C418.233 498.332 427.823 497.175 436.937 494.388C447.844 491.023 457.96 485.66 467.918 480.244C468.813 479.77 468.023 478.403 467.127 478.876C448.898 488.709 428.876 499.068 407.485 494.967C389.624 491.549 373.923 480.506 355.535 478.929C344.892 478.035 334.25 480.822 325.345 486.606C324.555 487.185 325.345 488.552 326.188 487.973Z" fill="#E8E8E8"/>
<path d="M525.084 523.625C536.569 512.898 550.69 505.168 565.916 501.224C573.661 499.226 581.617 498.227 589.626 498.28C598.53 498.385 607.381 499.805 616.233 500.646C633.409 502.276 649.9 499.384 665.97 493.127C681.302 487.185 695.738 476.878 712.23 474.354C731.513 471.41 746.424 484.187 758.7 497.281C759.385 498.017 760.491 496.913 759.806 496.176C749.69 485.397 737.783 474.249 722.398 472.514C705.538 470.621 690.206 480.507 675.559 487.29C658.699 495.125 640.522 500.488 621.818 499.437C612.492 498.911 603.272 497.228 593.893 496.755C585.938 496.334 577.929 496.913 570.131 498.543C552.903 502.066 536.833 510.374 523.977 522.415C523.24 523.204 524.346 524.308 525.084 523.625Z" fill="#E8E8E8"/>
<path d="M216.599 191.351C231.351 202.761 250.582 197.713 266.652 192.455C286.568 185.882 306.747 181.728 327.822 181.307C328.823 181.307 328.823 179.73 327.822 179.73C308.433 180.098 289.307 183.411 270.867 189.405C254.165 194.821 233.406 202.446 217.705 190.247C216.915 189.616 215.808 190.72 216.599 191.351Z" fill="#161616"/>
<path d="M358.644 95.7543C376.452 94.4397 393.628 89.4969 410.857 85.3428C428.771 80.9784 446.737 78.0863 465.231 80.0844C483.882 82.0826 501.954 87.709 520.236 91.7054C537.834 95.5965 555.695 97.3844 573.714 96.4904C593.999 95.4914 614.02 91.2321 632.935 83.9756C633.883 83.6075 633.462 82.0826 632.514 82.4507C598.109 95.6491 560.542 98.436 524.504 90.9692C506.538 87.2358 488.94 81.7671 470.763 79.1379C453.218 76.6139 436.095 78.0337 418.813 81.8197C398.792 86.1841 379.139 92.5993 358.644 94.1242C357.643 94.2819 357.643 95.8594 358.644 95.7543Z" fill="#161616"/>
<path d="M643.789 227.528C659.174 221.849 675.138 229.947 690.523 231.419C698.795 232.208 707.014 231.419 715.075 229.526C722.978 227.633 730.67 224.846 738.732 223.637C747.372 222.322 756.593 222.848 764.074 227.738C764.917 228.317 765.708 226.95 764.865 226.371C751.587 217.748 735.36 222.375 721.345 226.266C712.546 228.738 703.747 230.525 694.58 230.157C685.833 229.842 677.456 227.423 668.921 225.635C660.438 223.9 651.692 222.953 643.42 226.003C642.419 226.319 642.84 227.844 643.789 227.528Z" fill="#161616"/>
<path d="M106.745 387.066C120.127 375.182 138.989 385.699 153.847 387.96C171.023 390.589 188.2 385.856 204.585 381.282C205.586 381.019 205.165 379.494 204.164 379.757C186.039 384.805 167.283 389.8 148.473 385.331C134.722 382.07 117.914 375.13 105.586 385.962C104.848 386.593 105.954 387.697 106.745 387.066Z" fill="#161616"/>
<path d="M275.24 534.72C279.507 529.672 286.093 526.938 292.732 527.779C296.525 528.252 300.003 529.987 303.48 531.512C306.378 532.774 309.328 533.826 312.332 534.667C325.24 538.243 339.097 537.717 351.689 533.3C352.637 532.985 352.216 531.46 351.268 531.775C337.147 536.666 321.552 536.666 307.484 531.407C301.373 529.146 295.682 525.518 288.886 526.044C283.143 526.464 277.821 529.199 274.08 533.563C273.448 534.404 274.607 535.509 275.24 534.72Z" fill="#161616"/>
<path d="M364.914 530.408C374.503 527.621 384.355 526.254 394.366 526.307C395.367 526.307 395.367 524.729 394.366 524.729C384.25 524.677 374.239 526.096 364.492 528.883C363.544 529.199 363.913 530.724 364.914 530.408Z" fill="#161616"/>
<path d="M377.453 121.678C386.779 128.829 395.683 136.506 404.219 144.657C404.956 145.34 406.063 144.236 405.325 143.552C396.737 135.349 387.675 127.62 378.244 120.363C377.453 119.68 376.663 121.047 377.453 121.678Z" fill="#161616"/>
<path d="M286.093 149.389C286.989 144.446 287.937 139.504 288.833 134.508C289.044 133.509 287.516 133.088 287.305 134.088C286.409 139.03 285.461 143.973 284.565 148.969C284.407 149.968 285.935 150.388 286.093 149.389Z" fill="#161616"/>
<path d="M589.889 180.729C591.577 180.729 592.945 179.363 592.945 177.679C592.945 175.995 591.577 174.629 589.889 174.629C588.202 174.629 586.833 175.995 586.833 177.679C586.833 179.363 588.202 180.729 589.889 180.729Z" fill="#EC615B"/>
<path d="M190.623 432.603C192.631 432.603 194.259 430.979 194.259 428.975C194.259 426.971 192.631 425.347 190.623 425.347C188.615 425.347 186.988 426.971 186.988 428.975C186.988 430.979 188.615 432.603 190.623 432.603Z" fill="#EC615B"/>
<path d="M173.026 103.905C177.623 103.905 181.35 100.185 181.35 95.5965C181.35 91.008 177.623 87.2883 173.026 87.2883C168.428 87.2883 164.701 91.008 164.701 95.5965C164.701 100.185 168.428 103.905 173.026 103.905Z" fill="#EC615B"/>
<path d="M189.728 111.95C191.27 111.95 192.52 110.702 192.52 109.163C192.52 107.624 191.27 106.376 189.728 106.376C188.186 106.376 186.935 107.624 186.935 109.163C186.935 110.702 188.186 111.95 189.728 111.95Z" fill="#EC615B"/>
<path d="M349.265 579.679C352.699 579.679 355.483 576.901 355.483 573.474C355.483 570.047 352.699 567.269 349.265 567.269C345.832 567.269 343.048 570.047 343.048 573.474C343.048 576.901 345.832 579.679 349.265 579.679Z" fill="#EC615B"/>
<path d="M638.204 114.737C641.23 114.737 643.684 112.288 643.684 109.268C643.684 106.248 641.23 103.799 638.204 103.799C635.178 103.799 632.725 106.248 632.725 109.268C632.725 112.288 635.178 114.737 638.204 114.737Z" fill="#EC615B"/>
<path d="M645.211 102.695C647.073 102.695 648.583 101.189 648.583 99.3299C648.583 97.4713 647.073 95.9646 645.211 95.9646C643.349 95.9646 641.839 97.4713 641.839 99.3299C641.839 101.189 643.349 102.695 645.211 102.695Z" fill="#EC615B"/>
<path d="M181.403 95.1758C186.001 95.1758 189.728 91.4561 189.728 86.8676C189.728 82.2791 186.001 78.5594 181.403 78.5594C176.806 78.5594 173.079 82.2791 173.079 86.8676C173.079 91.4561 176.806 95.1758 181.403 95.1758Z" fill="#5222D0"/>
<path d="M177.241 437.493C179.54 437.493 181.403 435.634 181.403 433.339C181.403 431.045 179.54 429.185 177.241 429.185C174.942 429.185 173.079 431.045 173.079 433.339C173.079 435.634 174.942 437.493 177.241 437.493Z" fill="#5222D0"/>
<path d="M323.554 567.637C325.591 567.637 327.242 565.989 327.242 563.956C327.242 561.923 325.591 560.275 323.554 560.275C321.517 560.275 319.866 561.923 319.866 563.956C319.866 565.989 321.517 567.637 323.554 567.637Z" fill="#5222D0"/>
<path d="M617.972 95.9645C622.802 95.9645 626.718 92.0565 626.718 87.2357C626.718 82.4149 622.802 78.5068 617.972 78.5068C613.141 78.5068 609.226 82.4149 609.226 87.2357C609.226 92.0565 613.141 95.9645 617.972 95.9645Z" fill="#5222D0"/>
<path d="M473.977 228.159C475.024 228.159 475.873 227.312 475.873 226.266C475.873 225.221 475.024 224.373 473.977 224.373C472.929 224.373 472.08 225.221 472.08 226.266C472.08 227.312 472.929 228.159 473.977 228.159Z" fill="#5222D0"/>
<path d="M454.535 115.473C453.429 118.05 452.375 120.679 451.268 123.255C450.9 124.202 452.428 124.622 452.796 123.676C453.903 121.099 454.957 118.47 456.063 115.894C456.432 114.947 454.904 114.526 454.535 115.473Z" fill="#5222D0"/>
<path d="M454.272 116.735C456.221 118.786 457.749 121.099 458.75 123.729C459.119 124.675 460.647 124.254 460.278 123.308C459.119 120.416 457.486 117.892 455.378 115.631C454.693 114.895 453.534 115.999 454.272 116.735Z" fill="#5222D0"/>
<path d="M451.69 124.622C453.218 127.462 454.957 130.144 456.906 132.668C457.538 133.457 458.908 132.668 458.276 131.879C456.326 129.302 454.588 126.621 453.06 123.834C452.533 122.94 451.216 123.729 451.69 124.622Z" fill="#5222D0"/>
<path d="M458.856 123.834C458.223 126.778 457.644 129.723 457.012 132.668C456.801 133.667 458.329 134.088 458.54 133.088C459.172 130.144 459.751 127.199 460.384 124.254C460.594 123.308 459.066 122.887 458.856 123.834Z" fill="#5222D0"/>
<path d="M602.956 340.582C601.691 342.896 600.848 345.367 600.479 347.997C600.321 348.996 601.849 349.416 602.007 348.417C602.376 345.946 603.114 343.632 604.326 341.424C604.8 340.477 603.43 339.688 602.956 340.582Z" fill="#5222D0"/>
<path d="M602.85 341.055C603.904 343.842 605.116 346.524 606.486 349.101C606.96 349.995 608.33 349.206 607.856 348.312C606.538 345.841 605.379 343.264 604.378 340.635C604.01 339.688 602.482 340.109 602.85 341.055Z" fill="#5222D0"/>
<path d="M600.163 349.101C601.533 351.046 602.85 352.992 604.22 354.937C604.799 355.779 606.169 354.99 605.59 354.149C604.22 352.203 602.903 350.258 601.533 348.312C600.953 347.471 599.583 348.259 600.163 349.101Z" fill="#5222D0"/>
<path d="M605.906 348.838C604.8 350.363 604.273 352.098 604.273 353.938C604.273 354.937 605.854 354.937 605.854 353.938C605.854 352.361 606.328 350.889 607.276 349.627C607.856 348.785 606.486 347.997 605.906 348.838Z" fill="#5222D0"/>
<path d="M162.225 489.446C160.802 492.548 159.38 495.598 157.957 498.7C157.536 499.594 158.906 500.436 159.327 499.489C160.75 496.387 162.172 493.337 163.595 490.234C164.016 489.34 162.699 488.552 162.225 489.446Z" fill="#5222D0"/>
<path d="M162.488 489.866C163.858 493.126 165.228 496.387 166.598 499.647C166.967 500.593 168.495 500.173 168.126 499.226C166.756 495.966 165.386 492.706 164.016 489.446C163.647 488.499 162.119 488.92 162.488 489.866Z" fill="#5222D0"/>
<path d="M157.588 500.12C159.011 502.907 160.381 505.746 161.803 508.533C162.067 509.007 162.699 509.007 163.068 508.691C164.174 507.797 164.701 506.272 165.281 505.063C166.124 503.38 166.967 501.698 167.81 500.015C168.284 499.121 166.914 498.332 166.44 499.226C165.702 500.699 164.912 502.171 164.174 503.643C163.542 504.905 162.963 506.64 161.856 507.534C162.278 507.587 162.699 507.639 163.121 507.692C161.698 504.905 160.328 502.066 158.906 499.279C158.484 498.437 157.114 499.226 157.588 500.12Z" fill="#5222D0"/>
<path d="M692.524 245.038C690.891 248.141 689.89 251.401 689.416 254.871C689.258 255.87 690.838 255.87 690.997 254.871C691.418 251.664 692.366 248.667 693.842 245.827C694.369 244.933 692.999 244.144 692.524 245.038Z" fill="#5222D0"/>
<path d="M692.314 246.879C693.947 250.034 695.528 253.189 697.161 256.344C697.635 257.238 699.005 256.449 698.531 255.555C696.898 252.4 695.317 249.245 693.684 246.09C693.209 245.196 691.839 245.985 692.314 246.879Z" fill="#5222D0"/>
<path d="M689.521 255.082C690.838 258.237 692.419 261.181 694.316 263.968C694.895 264.81 696.265 264.021 695.686 263.18C693.842 260.498 692.261 257.658 691.049 254.661C690.68 253.767 689.153 254.188 689.521 255.082Z" fill="#5222D0"/>
<path d="M696.687 255.765C695.738 258.71 694.948 261.707 694.421 264.81C694.263 265.809 695.791 266.229 695.949 265.23C696.476 262.18 697.214 259.183 698.215 256.186C698.531 255.24 697.003 254.819 696.687 255.765Z" fill="#5222D0"/>
<path d="M686.413 500.33C685.781 502.434 685.201 504.484 684.569 506.588C684.305 507.587 685.781 507.955 686.097 507.008C686.729 504.905 687.309 502.854 687.941 500.751C688.257 499.752 686.729 499.331 686.413 500.33Z" fill="#5222D0"/>
<path d="M686.307 501.487C687.255 503.591 688.257 505.694 689.205 507.745C689.626 508.691 690.996 507.85 690.575 506.956C689.626 504.853 688.625 502.749 687.677 500.699C687.255 499.752 685.886 500.541 686.307 501.487Z" fill="#5222D0"/>
<path d="M684.99 507.587C685.464 510.058 686.624 512.267 688.257 514.16C688.942 514.949 690.048 513.792 689.363 513.056C687.888 511.373 686.94 509.375 686.518 507.219C686.307 506.167 684.779 506.588 684.99 507.587Z" fill="#5222D0"/>
<path d="M689.152 507.377C688.467 509.585 688.151 511.846 688.204 514.107C688.257 515.106 689.837 515.106 689.785 514.107C689.732 511.951 689.995 509.848 690.68 507.797C690.997 506.851 689.468 506.43 689.152 507.377Z" fill="#5222D0"/>
<path d="M142.362 222.901C141.203 225.425 140.096 227.949 138.937 230.473C138.516 231.367 139.885 232.208 140.307 231.261C141.466 228.737 142.572 226.213 143.732 223.689C144.153 222.796 142.783 221.954 142.362 222.901Z" fill="#5222D0"/>
<path d="M139.148 231.787C140.36 234.89 141.519 237.94 142.731 241.042C143.099 241.989 144.627 241.568 144.258 240.621C143.047 237.519 141.888 234.469 140.676 231.367C140.307 230.42 138.779 230.841 139.148 231.787Z" fill="#5222D0"/>
<path d="M142.362 223.006C143.995 225.845 145.628 228.737 147.262 231.577C147.788 232.471 149.106 231.682 148.631 230.788C146.998 227.949 145.365 225.057 143.732 222.217C143.205 221.323 141.835 222.112 142.362 223.006Z" fill="#5222D0"/>
<path d="M147.63 230.893C145.944 234.048 144.469 237.309 143.205 240.621C142.836 241.568 144.364 241.989 144.733 241.042C145.944 237.834 147.367 234.679 149 231.682C149.474 230.788 148.105 229.999 147.63 230.893Z" fill="#5222D0"/>
<path d="M539.52 271.383C540.574 269.384 542.576 268.017 544.894 268.122C546.791 268.175 548.214 269.49 549.9 270.121C552.85 271.172 553.746 269.279 555.959 267.859C558.962 265.861 561.86 270.331 565.074 270.278C566.918 270.226 568.446 269.332 568.498 267.386C568.077 267.597 567.708 267.859 567.287 268.07C568.92 268.911 570.553 269.752 572.134 270.646C573.03 271.12 573.82 269.752 572.924 269.279C571.291 268.438 569.658 267.597 568.077 266.703C567.55 266.44 566.918 266.755 566.865 267.386C566.707 271.12 559.436 265.809 558.066 265.651C554.958 265.23 553.746 269.069 551.059 268.648C548.214 268.175 546.422 266.124 543.366 266.65C541.048 267.071 539.151 268.49 538.098 270.594C537.729 271.488 539.046 272.276 539.52 271.383Z" fill="#5222D0"/>
<path d="M559.699 260.708C562.07 258.079 565.811 261.392 568.498 261.707C571.607 262.075 574.03 258.763 577.033 260.445C579.51 261.865 584.041 265.23 585.832 260.918C586.201 259.972 584.673 259.551 584.304 260.498C583.04 263.548 578.509 259.288 576.981 258.657C574.926 257.763 573.556 258.5 571.712 259.394C569.499 260.445 567.919 260.077 565.811 259.131C564.863 258.71 563.914 258.342 562.861 258.184C561.227 257.974 559.752 258.289 558.593 259.551C557.908 260.34 559.015 261.444 559.699 260.708Z" fill="#5222D0"/>
<path d="M516.917 136.664C517.655 135.297 518.498 134.929 519.446 135.56C519.868 135.718 520.289 135.928 520.711 136.191C521.185 136.401 521.659 136.717 522.133 136.874C522.976 137.137 523.819 137.243 524.662 137.032C526.928 136.401 528.087 133.562 530.511 133.614C532.776 133.667 534.409 135.823 536.78 134.719C537.781 134.245 538.466 133.404 539.415 132.878C541.522 131.721 544.104 132.142 545.895 133.614C546.685 134.245 547.792 133.141 547.002 132.51C544.631 130.564 541.364 129.986 538.624 131.511C537.413 132.195 536.411 133.667 534.831 133.457C533.935 133.351 533.145 132.72 532.302 132.405C531.037 131.932 529.878 131.774 528.614 132.352C527.033 133.088 525.979 135.139 524.241 135.507C522.028 135.981 520.553 133.719 518.498 133.667C516.548 133.614 514.283 135.507 515.6 137.453C516.127 138.294 517.497 137.505 516.917 136.664Z" fill="#EC615B"/>
<path d="M534.409 127.357C535.042 123.939 540.995 127.252 543.103 126.884C544.473 126.673 545.474 125.727 546.738 125.253C548.74 124.465 550.69 124.78 552.534 125.884C553.43 126.41 554.22 125.043 553.324 124.517C551.744 123.571 550.058 123.098 548.266 123.255C547.476 123.308 546.738 123.518 546.053 123.781C543.946 124.675 543.103 125.674 540.469 125.043C537.94 124.412 533.619 123.15 532.934 126.936C532.671 127.935 534.199 128.356 534.409 127.357Z" fill="#EC615B"/>
<path d="M135.512 317.393C136.197 314.08 140.781 318.602 141.677 319.181C142.678 319.864 143.784 320.338 144.996 320.075C146.577 319.812 147.788 318.497 149.422 318.129C152.056 317.551 154.691 318.392 156.587 320.285C157.325 321.021 158.431 319.864 157.694 319.181C156.06 317.551 154.058 316.552 151.74 316.394C150.581 316.289 149.422 316.447 148.315 316.815C146.577 317.393 145.207 319.076 143.099 318.234C140.886 317.34 140.043 315.079 137.514 314.816C135.881 314.659 134.353 315.29 134.037 316.972C133.774 317.971 135.302 318.392 135.512 317.393Z" fill="#EC615B"/>
<path d="M153.057 313.607C154.216 312.029 159.538 315.184 161.066 315.553C163.542 316.131 166.071 316.131 168.6 315.815C169.601 315.658 169.18 314.133 168.179 314.291C163.806 314.869 160.434 313.712 156.482 312.135C154.691 311.451 152.899 311.188 151.687 312.818C151.108 313.607 152.478 314.396 153.057 313.607Z" fill="#EC615B"/>
<path d="M281.509 423.822C282.352 422.507 283.67 421.666 285.303 421.666C286.673 421.666 287.516 422.507 288.728 422.875C289.939 423.296 290.94 423.033 291.994 422.349C294.049 420.982 295.05 419.3 297.842 419.405C300.371 419.457 302.795 420.667 305.008 421.771C305.904 422.244 306.694 420.877 305.798 420.404C301.636 418.3 296.578 416.302 292.574 419.72C291.678 420.456 291.573 420.667 290.203 420.93C288.675 421.245 288.833 421.035 287.674 420.562C286.673 420.141 285.724 419.983 284.618 420.088C282.668 420.299 281.141 421.403 280.139 422.98C279.613 423.874 280.982 424.663 281.509 423.822Z" fill="#EC615B"/>
<path d="M299.054 426.872C301.531 424.716 306.22 429.238 309.276 428.817C311.12 428.554 311.963 427.187 313.175 425.925C315.493 423.454 318.97 423.086 321.815 424.926C322.658 425.452 323.449 424.137 322.606 423.559C320.551 422.244 318.127 421.824 315.756 422.507C314.702 422.823 313.754 423.296 312.911 423.979C311.647 425.031 310.856 426.924 309.065 427.24C305.219 427.923 301.583 422.56 297.948 425.767C297.21 426.451 298.317 427.555 299.054 426.872Z" fill="#EC615B"/>
<path d="M227.188 89.602C227.61 87.8667 228.611 86.4996 230.297 85.7634C231.772 85.1324 232.984 85.5531 234.512 85.5005C236.198 85.3953 237.463 84.554 238.464 83.292C239.992 81.399 240.993 79.4534 243.153 78.1914C245.629 76.7717 248.474 76.5087 251.214 77.3501C252.215 77.6656 252.584 76.1407 251.635 75.8252C246.577 74.3002 241.572 76.2458 238.516 80.5051C237.304 82.1877 236.409 83.8704 234.091 83.923C232.668 83.9756 231.456 83.6601 230.086 84.1333C227.768 84.9221 226.187 86.8677 225.661 89.1813C225.397 90.1804 226.925 90.6011 227.188 89.602Z" fill="#EC615B"/>
<path d="M234.617 95.649C232.352 89.6545 243.205 89.97 246.472 88.8132C250.529 87.3934 254.006 84.8694 257.431 82.3454C258.221 81.767 257.431 80.3998 256.641 80.9783C254.322 82.7135 251.952 84.3962 249.423 85.7633C246.261 87.446 243.258 87.9718 239.833 88.4977C236.198 89.0761 231.456 91.6001 233.142 96.0171C233.458 96.9636 234.986 96.5955 234.617 95.649Z" fill="#EC615B"/>
<path d="M444.735 397.109C448.739 386.645 455.536 379.809 462.544 372.711C471.764 363.403 488.887 346.103 506.327 348.838C521.185 351.151 519.551 365.402 539.941 375.76C559.172 385.594 566.549 375.866 585.727 386.435C588.572 388.012 608.646 399.423 613.23 420.982C615.127 429.921 614.652 442.173 610.701 443.33C606.222 444.645 604.694 418.879 586.781 408.783C573.082 401.053 554.22 404.786 552.692 410.308C551.058 416.144 569.973 419.983 580.669 440.28C585.358 449.114 586.359 457.159 587.782 468.202C589.099 478.613 590.574 499.962 585.727 501.224C581.723 502.276 579.562 488.026 564.863 476.352C557.118 470.2 548.846 467.676 532.302 462.628C517.391 458.106 509.857 455.897 505.8 459.578C499.794 465.047 504.43 478.929 505.273 481.4C511.174 499.068 526.243 506.43 525.136 508.323C523.661 510.689 496.158 503.853 473.713 481.926C454.535 463.154 433.091 427.45 444.735 397.109Z" fill="#EC615B"/>
<path d="M616.76 458.053C616.549 459.526 615.443 467.729 620.29 472.987C625.664 478.771 632.197 474.354 638.783 480.086C644.842 485.344 644.052 493.232 645.896 493.074C648.003 492.916 651.217 482.242 646.686 475.774C645.264 473.723 641.786 471.883 634.884 468.307C627.824 464.626 626.876 464.784 625.032 462.786C620.448 457.843 621.133 451.375 619.5 451.375C618.235 451.375 617.129 455.267 616.76 458.053Z" fill="#EC615B"/>
<path d="M571.449 519.786C568.498 524.203 568.814 528.936 569.078 533.931C569.394 539.032 569.605 543.186 572.608 546.919C576.032 551.178 581.723 552.966 582.46 552.02C583.04 551.284 580.458 549.285 578.14 544.921C577.876 544.395 574.452 537.927 574.61 530.355C574.768 520.89 580.353 515.264 578.93 514.265C577.876 513.476 573.82 516.21 571.449 519.786Z" fill="#EC615B"/>
<path d="M592.576 432.603C601.428 438.44 596.58 451.954 602.376 459.841C602.956 460.63 604.325 459.841 603.746 459.052C597.74 450.849 602.85 437.493 593.367 431.236C592.524 430.657 591.733 432.025 592.576 432.603Z" fill="#EC615B"/>
<path d="M589.415 394.533C598.899 401.789 605.485 412.148 608.119 423.769C608.33 424.768 609.858 424.347 609.647 423.348C606.908 411.307 600.058 400.685 590.258 393.218C589.362 392.535 588.572 393.902 589.415 394.533Z" fill="#5222D0"/>
<path d="M558.856 423.664C566.443 429.869 572.397 437.809 576.085 446.906C576.454 447.852 577.982 447.432 577.613 446.485C573.767 437.125 567.813 428.975 559.963 422.56C559.225 421.929 558.066 423.033 558.856 423.664Z" fill="#5222D0"/>
<path d="M579.773 455.582C581.195 459.368 582.144 463.207 582.513 467.203C582.618 468.202 584.199 468.202 584.093 467.203C583.672 463.049 582.723 459.052 581.248 455.161C580.985 454.215 579.457 454.636 579.773 455.582Z" fill="#5222D0"/>
<path d="M498.687 464.311C497.37 472.251 498.898 480.191 503.218 487.027C503.745 487.868 505.115 487.079 504.588 486.238C500.531 479.823 498.95 472.251 500.215 464.732C500.373 463.732 498.845 463.312 498.687 464.311Z" fill="#5222D0"/>
<path d="M505.326 491.339C507.223 494.809 509.646 497.912 512.544 500.593C513.282 501.277 514.388 500.173 513.65 499.489C510.858 496.86 508.54 493.863 506.696 490.55C506.222 489.656 504.852 490.445 505.326 491.339Z" fill="#5222D0"/>
<path d="M444.84 411.202C444.419 416.197 444.893 421.14 446.316 425.978C446.579 426.977 448.107 426.556 447.844 425.557C446.474 420.824 446 416.092 446.421 411.202C446.526 410.203 444.946 410.203 444.84 411.202Z" fill="#5222D0"/>
<path d="M447.896 431.341C448.739 435.443 450.267 439.229 452.48 442.804C453.007 443.646 454.377 442.857 453.85 442.016C451.743 438.545 450.267 434.917 449.424 430.92C449.214 429.974 447.686 430.395 447.896 431.341Z" fill="#5222D0"/>
<path d="M310.329 102.643C308.854 106.639 307.063 112.108 305.324 118.733C303.533 125.621 299.318 143.763 299.739 167.636C300.161 190.667 304.692 207.599 308.854 222.69C315.335 246.248 323.238 263.18 327.927 273.013C327.927 273.013 342.838 304.51 367.548 338.268C371.921 344.21 377.506 351.73 377.506 351.73C381.563 357.146 385.04 361.668 387.464 364.928C389.413 367.137 391.89 369.608 395.104 371.974C401.11 376.444 407.064 378.705 411.226 379.862C418.075 374.025 424.925 368.136 431.774 362.299C434.883 365.244 438.044 368.136 441.152 371.081C445.473 366.664 449.319 363.14 452.322 360.564C465.389 349.258 476.19 343.474 478.719 342.107C480.879 340.95 482.723 340.056 483.987 339.478C482.038 335.587 480.088 331.696 478.139 327.752C481.3 325.017 484.936 322.125 488.993 319.286C494.472 315.447 499.741 312.345 504.535 309.926C504.483 305.509 503.903 298.831 501.005 291.469C498.845 285.948 496.264 282.215 495.157 280.637C482.986 263.127 518.866 311.398 471.975 244.618C453.797 218.747 444.735 205.759 440.573 200.395C427.559 183.411 417.338 171.79 410.067 163.534C396.157 147.706 389.887 141.817 384.829 137.505C377.927 131.511 370.288 125.043 358.749 119.049C351.478 115.315 345.472 113.264 336.726 110.267C325.925 106.586 316.81 104.167 310.329 102.643Z" fill="white"/>
<path d="M308.696 103.589C297.263 138.767 297.263 176.733 305.482 212.594C307.537 221.586 310.119 230.473 313.175 239.149C314.702 243.566 316.547 247.878 318.18 252.242C318.759 253.767 318.865 255.292 319.55 256.817C320.551 259.183 321.605 261.549 322.658 263.916C324.608 268.333 326.662 272.697 328.823 277.062C330.983 281.373 333.617 285.475 335.567 289.839C336.304 291.469 336.937 293.205 337.78 294.782C338.886 296.78 340.519 298.305 341.678 300.251C344.102 304.3 346.42 308.454 348.949 312.45C360.488 331.012 373.607 348.522 387.042 365.717C387.675 366.506 388.781 365.402 388.149 364.613C376.294 349.416 364.703 334.009 354.271 317.866C351.689 313.87 349.213 309.874 346.789 305.772C345.63 303.826 344.471 301.828 343.364 299.83C342.258 297.885 340.783 296.517 339.624 294.624C338.675 293.047 337.99 291.364 337.305 289.682C336.357 287.42 335.092 285.37 333.933 283.214C331.72 279.165 329.666 275.063 327.716 270.909C325.661 266.545 323.712 262.128 321.763 257.711C320.92 255.765 320.603 253.715 319.813 251.716C318.97 249.56 318.074 247.405 317.231 245.196C314.017 236.73 311.225 228.106 308.907 219.325C304.27 201.552 301.583 183.305 301.32 164.901C301.056 144.236 303.901 123.571 310.329 103.852C310.487 103.063 308.96 102.643 308.696 103.589Z" fill="black"/>
<path d="M309.434 103.589C318.233 104.273 327.189 107.323 335.461 110.215C343.628 113.107 351.689 116.262 359.171 120.574C374.081 129.197 387.253 140.503 399.266 152.807C411.648 165.48 422.923 179.414 433.829 193.349C444.683 207.231 455.062 221.586 465.073 236.099C476.137 252.242 486.78 268.701 497.212 285.317C497.739 286.158 499.109 285.37 498.582 284.528C479.456 254.188 459.699 224.215 437.728 195.82C416.495 168.319 393.734 140.24 363.913 121.573C355.799 116.472 347.105 112.791 338.148 109.478C329.086 106.166 319.181 102.748 309.486 101.959C308.433 101.959 308.433 103.537 309.434 103.589Z" fill="black"/>
<path d="M389.308 365.244C413.86 340.267 441.469 318.339 471.342 300.04C479.772 294.887 488.308 290.05 497.054 285.527C497.95 285.054 497.159 283.687 496.264 284.16C465.231 300.356 436.147 320.285 409.961 343.474C402.48 350.1 395.209 356.988 388.202 364.139C387.464 364.876 388.57 365.98 389.308 365.244Z" fill="black"/>
<path d="M387.78 366.453C394.05 373.447 402.216 378.39 411.331 380.598C412.332 380.861 412.754 379.336 411.753 379.073C402.849 376.865 394.998 372.132 388.886 365.296C388.201 364.56 387.095 365.717 387.78 366.453Z" fill="black"/>
<path d="M496.791 285.948C500.9 293.152 503.271 301.092 503.798 309.348C503.851 310.347 505.432 310.347 505.379 309.348C504.852 300.777 502.376 292.626 498.161 285.159C497.686 284.265 496.317 285.054 496.791 285.948Z" fill="black"/>
<path d="M412.28 380.177C440.784 354.201 471.658 330.959 504.588 310.82C505.431 310.294 504.641 308.927 503.798 309.453C470.815 329.645 439.782 352.992 411.173 379.073C410.436 379.757 411.542 380.861 412.28 380.177Z" fill="black"/>
<path d="M432.143 363.246C435.041 366.085 437.939 368.925 440.836 371.817C441.152 372.132 441.679 372.132 441.943 371.817C450.478 362.772 460.067 354.78 470.552 348.102C473.081 346.472 475.663 344.947 478.297 343.474C479.983 342.528 483.197 341.634 484.198 339.846C485.252 338.058 483.671 335.639 482.828 334.115C481.353 331.433 479.614 328.961 477.718 326.648C477.085 325.859 475.979 326.963 476.611 327.752C478.455 330.013 480.088 332.379 481.458 334.903C481.774 335.429 482.459 336.323 482.512 336.954C482.301 337.901 482.091 338.794 481.88 339.741C481.616 339.899 481.353 340.004 481.09 340.162C480.036 340.95 478.666 341.424 477.507 342.107C472.923 344.684 468.445 347.471 464.124 350.468C455.694 356.41 447.896 363.193 440.836 370.66C441.205 370.66 441.574 370.66 441.943 370.66C439.045 367.82 436.147 364.981 433.249 362.089C432.512 361.405 431.405 362.51 432.143 363.246Z" fill="black"/>
<path d="M312.437 233.628C325.398 218.379 340.572 205.18 356.115 192.613C371.71 180.045 388.043 168.267 406.326 159.906C407.274 159.485 406.431 158.118 405.536 158.539C387.411 166.794 371.236 178.468 355.746 190.877C339.94 203.603 324.502 217.011 311.33 232.471C310.645 233.312 311.752 234.416 312.437 233.628Z" fill="black"/>
<path d="M406.642 167.268C404.903 167.373 404.166 164.481 406.115 164.323C406.8 164.27 407.59 164.586 407.854 165.269C408.222 166.268 407.274 167.32 406.273 167.32C405.535 167.32 405.483 168.53 406.273 168.53C407.906 168.53 409.329 167.005 409.065 165.375C408.855 164.007 407.432 163.166 406.115 163.219C404.692 163.324 403.586 164.481 403.744 165.9C403.902 167.32 405.167 168.635 406.642 168.53C407.432 168.424 407.432 167.215 406.642 167.268Z" fill="black"/>
<path d="M487.096 283.582C487.149 283.582 487.149 283.582 487.201 283.529C487.043 283.529 486.885 283.477 486.727 283.477C487.307 283.74 486.991 282.635 486.938 282.478C486.938 282.32 486.991 282.11 487.043 281.952C487.201 281.636 487.465 281.321 487.781 281.163C488.466 280.848 489.204 281.373 489.414 282.057C489.836 283.424 487.834 284.108 487.307 282.898C486.991 282.215 485.99 282.793 486.306 283.477C486.938 284.949 489.098 285.054 490.152 283.95C491.364 282.635 490.468 280.427 488.835 279.954C487.096 279.48 485.41 281.321 485.832 283.003C485.99 283.687 486.885 284.528 487.57 283.845C488.097 283.319 487.57 282.162 486.78 282.478C486.095 282.741 486.411 283.845 487.096 283.582Z" fill="black"/>
<path opacity="0.15" d="M310.329 102.958C318.654 108.322 329.929 116.209 342.258 126.778C349.898 133.351 369.708 150.967 394.471 185.146C421.342 222.217 434.777 240.726 437.464 261.392C438.834 272.171 440.731 302.88 413.597 340.635C424.819 332.116 436.094 323.545 447.317 315.027C452.217 323.072 457.064 331.117 461.964 339.162C456.695 343.054 451.426 346.892 446.158 350.783C448.739 353.886 451.321 356.936 453.903 360.038C457.064 356.988 460.857 353.728 465.231 350.52C471.975 345.578 478.455 342.055 484.04 339.478C481.932 335.429 479.878 331.328 477.77 327.279C486.832 321.337 495.895 315.342 504.957 309.4C504.483 304.931 503.376 298.463 500.478 291.206C497.106 282.688 492.839 277.009 491.205 274.8C479.403 258.868 485.146 262.706 460.436 228.054C442.68 203.129 432.88 189.195 417.18 171.159C407.116 159.59 400.425 151.966 389.729 142.553C378.349 132.51 364.545 120.574 343.47 111.845C330.034 106.376 318.232 104.062 310.329 102.958Z" fill="#494949"/>
<path opacity="0.11" d="M479.509 255.713C479.035 259.078 478.087 264.231 475.716 270.068C470.236 283.582 461.806 289.471 444.208 307.244C435.884 315.658 423.502 328.12 424.661 329.487C425.768 330.802 439.308 320.39 462.965 304.825C476.822 295.676 488.466 288.577 496.106 283.95C490.573 274.537 485.041 265.125 479.509 255.713Z" fill="#494949"/>
<path opacity="0.08" d="M497.212 285.527C496.475 285.685 498.266 291.417 496.106 298.568C494.525 303.826 491.838 306.351 485.252 314.291C482.407 317.709 478.245 322.862 473.292 329.487C483.619 322.441 493.946 315.395 504.272 308.349C499.583 289.734 497.844 285.422 497.212 285.527Z" fill="#494949"/>
<path d="M408.223 457.633C408.381 459.158 408.96 460.367 409.856 461.839C413.65 467.939 419.919 471.672 424.451 473.828C422.659 479.455 420.499 487.553 418.918 497.438C417.443 506.956 415.704 518.051 417.97 518.787C418.76 519.05 421.079 518.314 442.628 475.721C445.631 469.78 448.107 464.837 449.74 461.471C438.255 456.318 426.821 451.112 415.336 445.959C414.229 446.801 407.643 451.586 408.223 457.633Z" fill="#161616" stroke="#161616" stroke-width="2" stroke-miterlimit="10"/>
<path d="M384.197 341.318C374.503 348.049 368.233 354.569 362.648 360.459C360.382 362.825 349.529 374.341 338.096 392.429C333.038 400.422 329.297 407.468 326.715 412.779C327.031 414.935 327.769 418.038 329.718 421.14C331.878 424.61 334.302 426.135 338.096 429.501C342.732 433.602 344.418 436.021 347.105 438.755C352.321 444.119 359.645 448.168 374.081 456.108C392.206 466.046 401.953 469.674 404.956 470.779C408.644 472.093 411.753 473.092 413.966 473.776C415.019 468.886 416.284 463.68 417.865 458.211C419.287 453.321 420.815 448.746 422.343 444.487C411.121 436.284 399.582 427.082 387.885 416.67C383.828 413.095 379.93 409.466 376.189 405.891C379.982 401.316 385.304 395.321 392.048 388.854C393.997 386.961 398.107 383.07 403.112 378.968C409.435 373.867 418.971 367.032 432.143 360.722C434.408 345.63 431.721 331.538 423.449 326.963C413.123 321.284 397.422 332.169 384.197 341.318Z" fill="white"/>
<path d="M373.554 349.153C354.903 364.928 339.466 384.437 328.507 406.259C327.4 408.52 325.82 411.044 325.609 413.568C325.398 416.25 327.031 418.301 328.507 420.351C332.037 425.136 336.041 429.606 340.309 433.76C349.371 442.436 359.803 449.588 370.762 455.635C384.25 463.102 398.528 469.043 412.754 474.933C413.702 475.301 414.124 473.776 413.175 473.408C389.887 463.733 366.125 453.847 346.684 437.388C342.311 433.655 338.148 429.659 334.408 425.294C332.458 422.98 330.509 420.614 328.823 418.143C327.769 416.618 326.979 415.198 327.242 413.253C327.506 411.36 328.612 409.572 329.455 407.836C334.513 397.583 340.572 387.855 347.527 378.758C355.483 368.294 364.597 358.776 374.661 350.31C375.451 349.627 374.345 348.522 373.554 349.153Z" fill="black"/>
<path d="M418.234 367.295C400.162 378.968 384.355 393.744 371.552 410.991C370.973 411.833 372.343 412.621 372.922 411.78C385.567 394.743 401.215 380.125 419.024 368.609C419.867 368.136 419.077 366.769 418.234 367.295Z" fill="black"/>
<path d="M375.293 406.679C390.098 420.036 405.325 432.866 421.026 445.118C421.816 445.749 422.923 444.645 422.132 444.014C406.432 431.762 391.152 418.931 376.4 405.575C375.662 404.892 374.556 405.996 375.293 406.679Z" fill="black"/>
<path d="M421.079 444.908C417.759 454.267 415.178 463.838 413.281 473.565C413.07 474.565 414.598 474.985 414.809 473.986C416.706 464.258 419.34 454.688 422.607 445.328C422.923 444.382 421.395 443.961 421.079 444.908Z" fill="black"/>
<path opacity="0.11" d="M404.587 361.405C397.316 362.036 391.837 367.347 374.924 390.799C368.444 399.791 363.017 407.626 358.854 413.831C364.861 418.038 369.603 421.508 372.606 423.769C389.413 436.337 396.473 443.383 410.752 451.06C413.86 452.743 416.442 453.952 417.97 454.636C419.182 451.323 420.393 448.01 421.553 444.697C417.548 441.227 413.544 437.809 409.487 434.338C398.317 424.873 387.253 415.724 376.241 406.837C380.825 400.422 385.146 395.584 388.307 392.272C397.632 382.544 406.905 375.971 414.124 370.923C416.6 369.188 418.707 367.82 420.077 366.927C413.281 361.721 407.959 361.09 404.587 361.405Z" fill="#494949"/>
<path opacity="0.08" d="M406.695 375.13C402.164 376.181 396.105 378.232 389.94 382.333C374.872 392.377 369.814 407.731 368.338 412.99C376.452 419.3 384.83 425.662 393.523 432.025C401.953 438.23 410.33 444.119 418.497 449.798C419.709 448.063 420.92 446.275 422.08 444.54C410.857 436.389 399.213 426.977 387.569 416.197C383.881 412.832 380.351 409.414 376.979 406.049C378.823 403.63 380.825 401.158 382.933 398.634C390.836 389.274 398.95 381.545 406.695 375.13Z" fill="#494949"/>
<path d="M506.432 440.438C512.017 445.696 517.655 451.007 523.239 456.266C521.764 489.814 524.557 497.701 527.507 498.28C532.091 499.174 539.941 483.346 543.366 470.884C545.948 461.419 546.211 453.111 545.948 447.484C537.202 439.702 528.456 431.92 519.709 424.085C515.284 429.553 510.858 435.022 506.432 440.438Z" fill="#161616" stroke="#161616" stroke-width="2" stroke-miterlimit="10"/>
<path d="M396.789 345.841C397.264 354.569 403.375 359.88 403.375 359.88C407.169 363.193 411.437 364.087 413.544 364.35C415.23 365.033 416.916 365.77 418.655 366.453C421.289 370.239 425.188 375.603 430.351 381.702C437.201 389.905 446.421 399.686 468.971 418.195C480.088 427.292 494.419 438.492 511.754 450.797C514.23 449.587 517.18 447.8 520.131 445.17C526.612 439.439 529.615 432.761 530.985 428.975C527.929 426.03 523.398 421.613 518.129 416.144C494.736 392.009 479.14 371.343 467.233 355.463C459.382 344.999 449.319 331.065 438.202 314.238C412.754 321.179 396.157 334.64 396.789 345.841Z" fill="white"/>
<path d="M404.956 361.879C409.171 363.351 413.333 364.771 417.548 366.243C418.497 366.558 418.918 365.033 417.97 364.718C413.755 363.246 409.592 361.826 405.377 360.354C404.429 360.038 404.008 361.563 404.956 361.879Z" fill="black"/>
<path d="M415.81 364.665C435.62 391.851 461.279 413.831 487.886 434.181C495.526 440.017 503.271 445.802 511.016 451.533C511.859 452.164 512.597 450.744 511.806 450.166C485.147 430.447 458.329 410.466 435.673 386.172C429.087 379.126 422.923 371.659 417.232 363.877C416.6 363.088 415.23 363.877 415.81 364.665Z" fill="black"/>
<path d="M446.896 328.015C465.547 356.568 486.569 383.49 509.752 408.52C516.443 415.776 523.345 422.823 530.353 429.711C531.09 430.447 532.197 429.29 531.459 428.607C507.065 404.734 484.725 378.81 464.704 351.204C459.014 343.369 453.534 335.376 448.213 327.226C447.686 326.385 446.316 327.173 446.896 328.015Z" fill="black"/>
<path d="M529.457 428.712C526.401 437.756 520.5 446.169 511.596 450.166C510.647 450.586 511.49 451.954 512.386 451.533C521.659 447.379 527.771 438.545 530.932 429.133C531.301 428.186 529.773 427.765 529.457 428.712Z" fill="black"/>
<path opacity="0.09" d="M446.948 327.173C443.945 323.125 441.416 319.812 439.73 317.656C438.044 320.758 435.725 325.964 435.515 332.432C435.041 347.05 445.789 353.307 476.611 387.381C490.046 402.21 497.159 411.149 514.493 428.817C518.55 432.919 521.975 436.336 524.451 438.755C526.348 435.443 528.245 432.13 530.194 428.817C513.492 412.096 500.268 397.004 490.362 385.068C480.826 373.552 472.291 363.246 463.492 350.415C461.226 347.208 455.483 338.637 446.948 327.173Z" fill="#494949"/>
<path opacity="0.09" d="M456.274 341.949C457.012 345.578 458.539 351.73 461.543 358.881C470.236 379.283 483.092 387.907 506.222 413.41C510.647 418.3 517.497 426.03 525.505 436.021C527.349 433.392 529.193 430.815 531.038 428.186C529.352 426.608 526.664 424.137 523.398 420.982C517.391 415.198 501.111 399.055 470.025 359.67C466.653 355.463 461.911 349.364 456.274 341.949Z" fill="#494949"/>
<path d="M285.253 295.466C284.199 295.886 282.618 296.78 277.929 304.3C272.871 312.398 269.446 317.919 266.917 326.648C264.704 334.43 264.178 341.529 264.336 347.313C264.704 348.996 264.968 351.467 264.125 354.201C263.018 357.672 261.016 358.513 257.223 363.246C255.695 365.139 253.166 368.346 251.164 372.711C248.951 377.601 250.057 378.232 247.95 383.017C245.421 388.749 241.68 392.692 241.048 393.323C237.57 396.952 235.884 397.057 234.356 400.212C232.618 403.787 233.145 407.153 233.303 408.152C233.408 408.888 234.515 415.303 238.255 416.092C239.256 416.302 240.837 416.197 241.469 415.251C242.47 413.778 240.152 411.728 239.731 408.152C239.362 404.892 240.784 402.263 241.68 400.632C244.367 395.637 247.476 396.373 250.321 392.219C253.06 388.118 250.479 386.856 253.113 379.126C254.588 374.814 256.064 370.502 260.015 367.295C261.807 365.822 263.545 365.034 265.179 362.562C266.601 360.406 267.128 358.25 267.339 356.778C270.237 361.405 273.292 364.403 275.505 366.243C278.456 368.662 281.828 371.501 284.673 370.45C286.201 369.871 287.571 368.136 287.307 366.927C287.149 366.243 286.517 366.033 284.884 364.56C284.884 364.56 284.251 363.982 282.829 362.457C281.881 361.458 280.511 359.617 279.299 356.147C279.773 355.621 280.985 354.464 282.618 354.359C284.41 354.307 285.779 355.569 287.149 356.936C289.731 359.46 289.626 360.985 291.259 362.51C292.523 363.719 294.842 364.981 299.425 364.665C299.215 364.087 298.846 363.14 298.372 362.089C296.738 358.566 295.895 358.198 295.79 356.725C295.737 355.569 296.212 355.253 298.372 351.572C300.216 348.417 301.111 346.84 301.164 345.998C301.428 342.896 298.741 341.844 298.161 338.269C297.634 335.271 298.951 332.853 299.9 330.96C305.379 319.864 308.857 312.818 307.855 307.507C306.328 299.199 293.05 292.206 285.253 295.466Z" fill="#161616"/>
<path d="M282.826 297.359C275.187 305.141 270.287 315.027 267.02 325.333C263.859 335.376 261.488 346.84 266.493 356.673C266.967 357.567 268.337 356.778 267.863 355.884C262.91 346.209 265.597 334.745 268.811 324.912C271.973 315.132 276.662 305.877 283.933 298.463C284.618 297.727 283.511 296.623 282.826 297.359Z" fill="#161616"/>
<path d="M274.923 342.791C275.556 342.475 276.188 342.212 276.82 341.897C277.294 342.16 277.768 342.475 278.243 342.738C278.822 343.264 279.349 343.948 279.718 344.631C280.455 345.893 280.824 347.418 280.719 348.89C280.508 351.73 278.453 353.938 277.926 356.673C277.61 358.355 278.717 359.565 279.665 360.827C281.298 362.983 283.195 364.981 285.25 366.769C285.988 367.452 287.147 366.348 286.356 365.664C285.039 364.455 283.722 363.246 282.563 361.878C280.666 359.723 278.98 357.882 280.297 354.885C281.456 352.256 282.668 349.784 282.141 346.787C281.72 344.473 280.403 342.107 278.348 340.845C276.609 339.793 274.502 340.004 273.553 341.949C273.079 342.896 274.449 343.685 274.923 342.791Z" fill="#161616"/>
<path d="M266.599 356.883C269.655 361.773 273.87 365.822 278.98 368.504C280.508 369.293 283.406 371.133 285.25 370.344C286.989 369.608 286.673 367.505 286.198 366.085C285.882 365.139 284.354 365.559 284.67 366.506C285.882 370.344 280.772 367.663 279.771 367.137C278.137 366.295 276.609 365.296 275.134 364.14C272.236 361.878 269.865 359.144 267.916 356.042C267.442 355.253 266.072 356.042 266.599 356.883Z" fill="#161616"/>
<path d="M302.9 308.612C299.792 319.023 297.842 329.75 296.947 340.582C296.894 340.898 297.21 341.266 297.526 341.319C300.845 342.212 300.371 346.314 299.159 348.628C297.948 350.836 296.051 352.677 295.103 355.043C293.417 359.302 298.422 360.669 298.316 364.403C298.58 364.14 298.843 363.877 299.107 363.614C294.365 363.351 290.361 360.827 287.99 356.726C286.304 353.781 284.354 353.15 280.982 353.36C279.981 353.413 279.981 354.99 280.982 354.938C282.247 354.885 283.775 354.727 284.934 355.358C285.935 355.937 286.251 356.936 286.778 357.83C287.674 359.355 288.833 360.722 290.203 361.826C292.784 363.929 295.787 364.981 299.054 365.191C299.476 365.191 299.844 364.823 299.844 364.403C299.897 362.194 298.422 360.88 297.21 359.197C294.681 355.674 298.843 352.414 300.477 349.416C302.268 346.156 302.215 340.898 297.895 339.794C298.106 340.057 298.264 340.319 298.475 340.53C299.318 329.803 301.32 319.286 304.376 308.98C304.692 308.086 303.164 307.665 302.9 308.612Z" fill="#161616"/>
<path d="M263.806 347.786C264.175 350.941 263.754 354.044 262.226 356.883C260.803 359.565 258.485 361.51 256.219 363.561C252.215 367.295 250.371 371.396 249.106 376.654C247.737 382.228 246.103 386.698 242.046 390.905C238.99 394.007 235.408 396.899 233.511 400.948C231.667 404.892 231.93 409.466 234.301 413.147C235.671 415.303 240.36 419.615 242.152 415.514C242.889 413.831 242.046 411.728 241.467 410.097C240.94 408.678 240.255 407.258 240.255 405.68C240.255 403.472 241.519 401.579 242.995 400.054C246.577 396.321 251.161 394.217 252.742 388.906C253.638 385.909 253.005 382.912 253.216 379.862C253.479 376.076 255.271 372.868 258.011 370.292C262.173 366.348 267.705 363.088 267.705 356.673C267.705 355.674 266.124 355.674 266.124 356.673C266.072 362.825 260.065 365.875 256.272 369.766C253.321 372.763 251.635 376.549 251.583 380.756C251.53 383.543 252.004 386.172 251.056 388.854C250.002 391.904 247.789 393.954 245.366 395.953C242.257 398.424 238.674 401.316 238.674 405.68C238.674 407.784 239.728 409.677 240.36 411.675C240.518 412.201 241.098 413.621 240.835 414.041C240.308 414.094 239.728 414.199 239.201 414.252C238.253 414.83 237.515 414.725 236.988 413.936C235.829 413.2 234.828 410.991 234.407 409.729C232.721 404.787 235.039 400.37 238.358 396.794C241.151 393.744 244.417 391.167 246.735 387.697C249.212 384.016 249.949 379.652 251.003 375.445C251.793 372.395 252.847 369.451 254.955 367.032C256.799 364.876 259.117 363.246 261.014 361.142C264.386 357.462 265.914 352.676 265.334 347.786C265.281 346.787 263.701 346.787 263.806 347.786Z" fill="#161616"/>
<path d="M229.612 283.74C228.506 284.371 226.451 285.475 226.029 287.789C225.502 290.365 227.346 292.469 227.61 292.732C227.294 293.1 226.345 294.204 226.24 295.887C226.135 298.673 228.611 300.303 228.716 300.409C228.611 300.514 227.083 302.091 227.61 304.247C228.031 306.088 229.665 306.876 229.875 306.929C229.77 307.244 229.401 308.612 230.086 309.874C231.14 311.767 233.669 311.661 233.932 311.661C235.724 311.556 237.41 310.347 238.2 308.506C239.201 309.085 241.835 310.452 245.418 310.084C247.842 309.821 249.633 308.875 250.582 308.296C252.478 311.609 255.429 316.078 259.802 320.653C263.648 324.65 270.814 332.169 281.456 335.271C294.734 339.163 306.483 334.115 313.227 331.222C331.352 323.44 340.361 309.137 343.68 303.774C349.265 294.625 351.215 286.79 352.901 279.691C355.641 268.438 354.692 264.021 353.796 261.444C353.27 259.867 350.161 250.823 342.996 249.771C337.147 248.877 332.3 253.872 331.72 254.503C329.718 256.607 328.664 259.394 326.557 264.862C325.503 267.649 324.818 269.753 324.502 270.699C321.078 281.794 319.339 287.315 318.865 288.472C317.6 291.627 314.597 298.831 307.379 304.458C300.477 309.821 293.258 310.978 290.045 311.451C285.197 312.135 279.244 312.976 272.921 309.874C265.861 306.403 262.7 300.093 261.857 298.41C259.328 293.205 258.854 287.421 258.485 283.319C258.011 278.061 258.379 273.959 255.323 270.699C254.744 270.121 253.374 268.648 251.951 268.911C249.897 269.332 248.738 273.276 247.684 277.009C246.788 280.164 247.052 280.532 246.314 281.268C244.786 282.793 242.837 282.005 236.145 282.373C232.246 282.636 230.876 283.056 229.612 283.74Z" fill="white"/>
<path d="M240.518 281.479C234.828 280.427 224.818 281.899 225.608 289.682C226.293 296.675 234.617 297.885 239.623 294.835C240.466 294.309 239.675 292.942 238.832 293.468C234.67 295.992 227.136 295.308 227.136 288.998C227.136 282.898 235.724 282.215 240.097 283.004C241.098 283.214 241.519 281.689 240.518 281.479Z" fill="black"/>
<path d="M226.978 292.258C221.287 299.199 234.986 307.928 239.043 299.199C239.465 298.305 238.095 297.464 237.673 298.41C234.512 305.141 223.974 298.41 228.137 293.362C228.769 292.626 227.663 291.469 226.978 292.258Z" fill="black"/>
<path d="M227.294 299.304C226.082 302.039 226.925 305.509 229.717 306.929C232.457 308.349 235.882 307.034 237.304 304.405C237.779 303.511 236.409 302.722 235.935 303.616C234.881 305.457 232.51 306.508 230.508 305.562C228.506 304.615 227.768 302.039 228.664 300.093C229.085 299.199 227.715 298.411 227.294 299.304Z" fill="black"/>
<path d="M228.558 306.351C228.348 309.137 229.981 311.662 232.826 312.24C235.461 312.766 237.884 311.031 238.78 308.664C239.149 307.718 237.621 307.297 237.252 308.244C236.567 310.031 234.67 311.188 232.773 310.61C230.824 310.031 230.034 308.244 230.139 306.351C230.192 305.351 228.611 305.351 228.558 306.351Z" fill="black"/>
<path d="M233.564 289.156C234.934 288.998 236.356 289.051 237.515 289.839C238.622 290.576 239.254 292.048 238.622 293.257C238.148 294.151 239.517 294.94 239.992 294.046C240.835 292.416 240.466 290.523 239.201 289.208C237.779 287.683 235.513 287.368 233.511 287.578C232.563 287.736 232.563 289.314 233.564 289.156Z" fill="black"/>
<path d="M238.464 309.716C241.203 308.717 243.838 310.978 246.683 310.662C248.843 310.399 250.74 309.243 252.531 308.191C253.374 307.665 252.584 306.298 251.741 306.824C249.054 308.454 246.736 309.611 243.522 308.664C241.572 308.086 240.044 307.455 238.042 308.191C237.094 308.559 237.463 310.084 238.464 309.716Z" fill="black"/>
<path d="M240.097 282.846C242.837 283.792 246.525 283.95 248.053 280.953C248.896 279.27 248.369 277.219 248.738 275.432C249.159 273.013 250.529 271.015 252.426 269.49C253.216 268.859 252.11 267.754 251.319 268.385C249.265 270.068 247.789 272.382 247.262 275.011C246.999 276.483 247.368 278.219 246.946 279.638C245.998 282.478 242.837 282.11 240.624 281.321C239.57 281.005 239.149 282.53 240.097 282.846Z" fill="black"/>
<path d="M251.267 269.595C255.745 270.173 256.325 277.693 257.062 281.111C257.958 285.58 258.432 290.102 259.275 294.572C260.645 301.723 264.807 307.402 271.446 310.61C278.401 313.923 286.304 313.765 293.575 311.767C301.056 309.663 308.801 305.877 313.649 299.62C314.281 298.831 313.174 297.727 312.542 298.516C307.484 305.036 299.265 308.875 291.362 310.715C283.406 312.555 274.713 311.872 268.074 306.719C260.908 301.197 260.75 292.889 259.328 284.634C258.643 280.743 258.063 276.536 256.641 272.855C255.745 270.541 254.322 268.438 251.741 268.07C250.687 267.912 250.266 269.437 251.267 269.595Z" fill="black"/>
<path d="M250.107 309.243C256.483 317.025 262.647 325.912 271.077 331.643C279.349 337.217 289.57 337.795 299.16 336.218C318.654 332.958 335.198 319.759 344.682 302.722C350.108 293.047 353.322 282.32 354.745 271.33C354.85 270.331 353.27 270.331 353.164 271.33C350.741 290.102 342.521 308.507 327.874 320.916C320.656 327.016 312.068 331.591 302.848 333.799C293.311 336.113 282.3 336.428 273.606 331.328C264.333 325.912 257.853 316.236 251.214 308.086C250.582 307.35 249.475 308.454 250.107 309.243Z" fill="black"/>
<path d="M343.733 249.561C339.36 247.825 334.724 250.086 331.668 253.294C328.085 256.975 326.294 261.865 324.976 266.703C323.449 272.329 322.079 277.903 319.918 283.319C317.6 289.156 314.65 294.677 311.278 299.936C310.698 300.777 312.068 301.566 312.648 300.724C318.074 292.364 322.237 283.267 324.818 273.644C326.188 268.596 327.084 263.337 329.613 258.763C332.142 254.135 337.516 248.772 343.312 251.085C344.26 251.454 344.682 249.929 343.733 249.561Z" fill="black"/>
<path d="M235.935 305.509C237.41 305.614 237.094 308.086 236.83 308.98C236.514 309.926 238.042 310.347 238.358 309.4C239.043 307.402 238.569 304.142 235.935 303.932C234.934 303.879 234.934 305.457 235.935 305.509Z" fill="black"/>
<path d="M236.83 300.672C237.146 301.934 236.672 303.248 235.671 303.984C234.828 304.563 235.619 305.93 236.462 305.351C238.095 304.195 238.885 302.196 238.358 300.251C238.148 299.252 236.62 299.672 236.83 300.672Z" fill="black"/>
<path d="M237.726 295.203C239.149 295.886 238.2 298.147 237.515 299.041C236.883 299.83 238.253 300.619 238.885 299.83C240.097 298.253 240.729 294.887 238.516 293.836C237.621 293.415 236.83 294.782 237.726 295.203Z" fill="black"/>
<path opacity="0.11" d="M226.872 295.413C227.715 294.94 229.085 297.885 232.615 299.357C233.932 299.883 235.566 300.251 243.047 299.357C245.471 299.041 248.632 298.621 252.426 297.937C253.163 300.934 254.691 305.457 257.8 310.137C259.117 312.082 264.438 319.654 274.712 324.124C285.724 328.961 295.682 327.331 299.528 326.648C302.795 326.069 311.91 324.334 320.024 317.288C325.45 312.608 328.928 306.929 334.038 292.153C337.516 282.11 341.731 268.175 344.839 250.875C346.947 253.031 350.214 256.922 352.058 262.706C352.953 265.493 353.796 269.595 353.111 276.01C351.689 289.839 344.734 301.355 340.519 307.244C336.146 313.397 328.348 324.019 313.912 330.592C311.962 331.485 300.951 336.27 286.936 335.639C283.722 335.482 280.771 335.324 277.136 334.009C273.184 332.59 269.233 328.909 261.382 321.652C258.116 318.655 254.902 315.5 251.635 310.925C251.003 310.031 250.476 309.243 250.107 308.717C249.001 309.453 247.368 310.294 245.524 310.084C243.047 309.874 242.204 308.086 240.149 308.401C238.358 308.664 238.358 310.137 236.198 310.925C234.512 311.504 232.141 311.451 230.56 310.242C229.401 309.348 229.243 308.349 227.926 302.67C226.661 297.096 226.293 295.729 226.872 295.413Z" fill="#494949"/>
<path d="M287.097 281.743C286.096 281.953 285.727 283.951 285.095 287.054C284.726 288.947 284.568 290.577 284.515 291.733C282.408 294.205 282.197 296.466 282.144 297.36C282.091 299.2 282.724 300.62 283.936 303.249C284.779 305.142 285.674 306.615 286.306 307.614C284.041 308.139 282.46 309.612 282.355 311.189C282.25 312.714 283.619 313.924 284.146 314.344C286.517 316.395 288.256 314.87 291.259 316.5C293.683 317.815 293.472 319.287 297.002 321.233C299.215 322.442 299.9 322.179 300.163 322.021C301.059 321.443 300.743 319.55 300.585 318.288C300.374 316.763 299.742 314.449 298.003 311.768C300.058 311.032 302.113 310.295 304.115 309.612C302.64 309.77 302.323 309.822 302.323 309.822C302.323 309.77 305.959 308.297 309.068 309.612C311.649 310.716 311.86 313.03 314.02 313.187C315.232 313.293 316.602 312.609 317.181 311.61C318.393 309.559 316.128 306.562 315.601 305.878C313.441 303.039 310.279 302.198 308.857 301.935C309.331 300.883 309.858 299.2 309.963 297.097C310.069 293.521 308.593 290.892 307.908 289.788C306.96 286.685 306.064 283.583 305.116 280.428C303.641 283.846 302.007 284.898 300.743 285.16C299.32 285.476 298.53 284.792 296.212 285.16C293.999 285.529 293.894 286.212 292.629 286.16C289.678 285.844 288.677 281.427 287.097 281.743Z" fill="#161616"/>
<path d="M288.411 298.358C289.307 299.41 290.73 300.093 292.152 299.725C293.417 299.41 294.26 298.358 294.418 297.096C294.47 296.57 293.68 296.57 293.627 297.096C293.522 298.2 292.574 298.989 291.467 299.041C290.466 299.094 289.623 298.516 288.991 297.779C288.622 297.411 288.095 297.99 288.411 298.358Z" fill="white"/>
<path d="M299.687 296.623C301.004 298.516 305.271 298.673 305.113 295.676C305.061 295.15 304.27 295.15 304.323 295.676C304.481 297.832 301.267 297.517 300.372 296.202C300.055 295.781 299.37 296.202 299.687 296.623Z" fill="white"/>
<path d="M297.632 302.459C297.632 302.512 297.684 302.565 297.684 302.617C297.842 302.67 298.053 302.722 298.211 302.775C298.106 302.565 297.948 302.459 297.684 302.459C297.895 302.407 298.053 302.302 298.264 302.249C298.211 302.196 298.158 302.091 298.106 302.039C297.842 302.144 297.632 302.249 297.368 302.354C297.737 302.933 297.579 303.984 297.368 304.563C297.105 305.352 295.998 306.403 295.313 305.352C295.05 304.931 294.365 305.299 294.628 305.772C295.313 306.824 296.736 306.771 297.526 305.877C298.316 304.983 298.738 303.038 298.053 301.986C297.842 301.618 297.21 301.828 297.315 302.302C297.421 302.617 297.579 302.827 297.842 302.985C298.053 303.143 298.369 302.985 298.422 302.775C298.527 302.302 298.369 301.197 297.632 301.513C296.947 301.776 297.21 302.827 297.526 303.248C297.632 303.406 297.895 303.511 298.053 303.406C298.633 302.985 298.633 302.196 298 301.881C297.579 301.565 297.21 302.249 297.632 302.459Z" fill="white"/>
<path d="M297.684 302.617C297.895 303.827 298.317 305.299 299.739 305.509C301.162 305.72 301.583 304.353 301.583 303.248C301.583 302.722 300.793 302.722 300.793 303.248C300.793 304.037 300.53 305.141 299.476 304.615C298.686 304.247 298.58 303.196 298.475 302.407C298.369 301.934 297.579 302.144 297.684 302.617Z" fill="white"/>
<path d="M283.143 298.621C284.144 293.152 288.095 288.472 293.469 286.895C298.844 285.317 305.061 287.473 307.537 292.626C307.959 293.52 309.328 292.731 308.907 291.838C306.22 286.316 299.634 283.845 293.786 285.212C287.568 286.684 282.774 291.995 281.615 298.2C281.457 299.199 282.985 299.62 283.143 298.621Z" fill="#161616"/>
<path d="M285.935 290.681C285.882 288.052 286.357 285.422 287.463 283.056C287.568 282.846 287.674 282.688 287.726 282.478C288.095 281.847 288.148 281.742 287.832 282.162C287.516 282.425 287.568 282.636 288.043 282.951C288.148 283.109 288.306 283.319 288.411 283.477C289.202 284.739 289.887 286.053 290.466 287.421C290.835 288.367 292.363 287.946 291.994 287C291.467 285.738 289.044 279.323 286.989 280.743C285.988 281.426 285.356 283.74 285.039 284.844C284.46 286.737 284.249 288.735 284.302 290.733C284.407 291.68 285.988 291.68 285.935 290.681Z" fill="#161616"/>
<path d="M302.005 286.422C302.532 285.528 303.058 284.634 303.638 283.74C303.901 283.372 304.27 283.004 304.428 282.583C304.797 282.373 304.85 282.162 304.639 281.899C304.428 281.531 304.481 281.636 304.745 282.215C305.64 284.476 306.272 286.684 306.536 289.156C306.641 290.155 308.222 290.155 308.117 289.156C307.958 287.421 307.642 285.738 307.168 284.055C306.852 283.109 306.378 280.953 305.482 280.374C304.797 279.954 304.218 280.269 303.743 280.848C302.532 282.267 301.583 284.003 300.635 285.633C300.108 286.474 301.478 287.263 302.005 286.422Z" fill="#161616"/>
<path d="M281.72 297.78C281.351 306.614 289.36 314.186 298.264 312.345C302.374 311.504 306.167 308.822 308.116 305.089C310.171 301.145 311.33 294.887 308.643 290.996C308.064 290.155 306.694 290.944 307.273 291.785C309.644 295.308 308.485 301.092 306.589 304.615C304.85 307.823 301.425 310.084 297.842 310.82C289.887 312.398 282.985 305.562 283.301 297.78C283.301 296.728 281.72 296.728 281.72 297.78Z" fill="#161616"/>
<path d="M282.826 311.661C284.091 306.982 290.413 307.244 293.733 309.295C297.263 311.399 299.054 315.5 299.423 319.444C299.528 320.548 299.95 321.652 298.106 320.969C297.421 320.706 296.525 319.707 295.998 319.181C295.05 318.234 294.207 317.235 293.153 316.447C291.994 315.553 290.782 315.027 289.36 314.764C287.147 314.343 283.143 314.606 282.932 311.451C282.879 310.452 281.299 310.452 281.351 311.451C281.509 313.502 282.826 314.869 284.723 315.553C286.198 316.078 287.832 315.973 289.36 316.341C291.256 316.815 292.521 317.814 293.838 319.181C295.155 320.495 297.421 323.44 299.686 323.019C301.583 322.651 301.162 320.495 301.004 319.076C300.424 314.028 297.737 309.032 292.784 307.087C288.622 305.457 282.616 306.403 281.351 311.293C281.035 312.24 282.563 312.661 282.826 311.661Z" fill="#161616"/>
<path d="M303.849 304.826C306.009 301.934 310.909 303.09 313.175 305.036C314.492 306.14 315.387 307.665 315.809 309.348C315.914 309.874 316.178 310.978 316.02 311.556C315.493 313.081 314.386 312.608 313.438 311.872C312.121 310.873 311.12 309.453 309.486 308.822C308.696 308.507 307.906 308.454 307.063 308.507C306.272 308.507 305.535 308.717 304.745 308.612C303.269 308.401 301.214 307.034 303.691 305.141C304.481 304.51 303.375 303.406 302.584 304.037C301.373 304.983 300.74 306.403 301.267 307.928C302.005 309.926 303.902 310.347 305.851 310.242C307.8 310.137 309.065 310.189 310.646 311.504C311.383 312.135 312.015 312.871 312.858 313.449C313.965 314.238 315.598 314.974 316.81 313.87C319.602 311.293 316.388 305.562 314.176 303.774C311.014 301.198 305.219 300.461 302.584 304.09C301.899 304.826 303.269 305.614 303.849 304.826Z" fill="#161616"/>
<path d="M285.882 307.297C289.307 306.193 294.523 308.349 296.631 311.136C296.789 311.346 297.105 311.136 296.947 310.925C294.734 307.928 289.465 305.72 285.777 306.929C285.514 306.982 285.619 307.35 285.882 307.297Z" fill="white"/>
<path d="M304.217 305.036C305.745 303.248 307.958 302.46 310.277 302.933C310.54 302.985 310.645 302.617 310.382 302.565C307.958 302.091 305.535 302.88 303.954 304.773C303.796 304.983 304.059 305.246 304.217 305.036Z" fill="white"/>
<path d="M287.832 282.636C288.359 284.003 288.728 285.37 288.886 286.79C288.991 286.737 289.096 286.684 289.202 286.632C288.938 286.369 288.675 286.211 288.359 286.053C288.201 286.001 288.043 286.053 288.043 286.211C288.043 286.684 287.99 287.105 287.99 287.578C288.095 287.526 288.201 287.473 288.306 287.421C287.568 286.579 286.989 288.472 286.778 288.84C286.673 289.051 286.989 289.261 287.094 289.051C287.147 288.946 287.832 287.473 287.99 287.683C288.095 287.841 288.306 287.683 288.306 287.526C288.306 287.052 288.359 286.632 288.359 286.159C288.253 286.211 288.148 286.264 288.043 286.316C288.359 286.422 288.569 286.579 288.78 286.842C288.886 286.947 289.149 286.895 289.096 286.684C288.886 285.212 288.569 283.792 287.99 282.425C288.095 282.32 287.726 282.425 287.832 282.636Z" fill="white"/>
<path d="M304.112 281.952C303.533 283.056 303.216 284.16 303.111 285.422C303.111 285.528 303.269 285.633 303.375 285.633C304.112 285.422 304.218 286.001 304.27 286.632C304.27 286.79 304.481 286.895 304.586 286.79C304.85 287.21 305.061 287.578 305.324 287.999C305.271 288.262 305.693 288.367 305.693 288.104C305.798 287.368 305.324 285.475 304.323 286.527C304.428 286.579 304.534 286.632 304.639 286.684C304.586 286.211 304.481 285.791 304.376 285.317C304.376 285.212 304.27 285.16 304.165 285.16C303.796 285.16 303.533 285.212 303.216 285.317C303.322 285.37 303.375 285.422 303.48 285.528C303.533 284.371 303.849 283.319 304.428 282.267C304.586 281.899 304.218 281.689 304.112 281.952Z" fill="white"/>
<path d="M337.147 250.77C337.885 255.818 339.308 263.811 342.258 273.276C348.475 293.047 355.799 301.513 365.493 324.44C367.917 330.171 371.342 338.795 374.714 349.68C380.983 351.73 392.627 354.517 406.853 352.046C430.246 347.997 443.998 332.537 447.844 327.857C439.835 313.134 431.774 297.201 423.924 280.112C416.126 263.18 409.329 246.879 403.428 231.367C398.476 229.527 385.515 225.425 369.603 229.316C350.583 233.891 340.098 246.879 337.147 250.77Z" fill="#EC615B"/>
<path opacity="0.13" d="M383.407 227.528C385.409 231.735 387.938 237.466 390.625 244.407C399.055 266.492 402.111 284.634 403.217 291.101C405.588 304.458 407.643 325.175 404.271 351.783C411.595 351.572 417.022 349.89 420.446 348.575C430.246 344.684 437.359 337.901 444.208 331.328C445.789 329.855 447.001 328.541 447.791 327.752C445.526 323.861 442.101 317.761 438.097 310.137C426.505 288.157 418.918 269.91 412.543 254.451C410.278 249.035 407.169 241.252 403.534 231.84C400.636 230.631 397 229.421 392.733 228.632C389.255 227.949 386.094 227.633 383.407 227.528Z" fill="#494949"/>
<path opacity="0.1" d="M418.286 269.227C419.182 278.639 419.919 286.527 420.446 292.206C422.448 314.448 422.817 320.601 422.975 324.544C423.397 333.852 423.397 341.476 423.344 346.472C426.611 345.315 430.826 343.422 435.199 340.372C440.678 336.533 444.367 332.327 446.737 329.224C437.254 309.19 427.77 289.208 418.286 269.227Z" fill="#494949"/>
<path d="M380.88 218.275C378.351 219.012 376.981 222.64 376.138 226.373C374.452 233.998 375.347 240.518 375.663 242.779C377.191 252.823 379.931 260.342 380.827 262.813C383.145 268.913 386.306 277.064 393.208 285.74C397.16 290.683 400.532 294.942 406.749 298.097C410.385 299.99 417.919 303.828 425.664 300.779C426.033 300.621 433.62 297.518 435.569 290.893C435.991 289.421 436.096 287.948 436.254 285.056C436.359 283.321 436.412 280.271 436.043 276.485C435.516 271.49 434.41 267.599 433.567 264.812C429.826 252.455 427.982 246.302 424.083 240.939C420.869 236.522 417.234 231.474 411.228 230.79C410.701 230.738 404.642 230.159 401.059 234.366C398.583 237.311 398.741 240.939 398.793 243.358C398.951 247.985 400.743 251.298 403.535 256.398C406.328 261.446 407.434 262.077 410.753 268.072C415.284 276.275 414.81 277.064 414.6 277.274C413.704 278.063 410.121 275.591 409.331 275.013C408.593 274.487 407.539 273.751 406.222 272.331C402.113 267.756 399.689 260.868 399.689 260.868C397.529 256.609 394.684 250.562 391.786 242.884C392.681 239.466 394.051 237.048 395.158 235.47C396.949 232.946 398.951 231.211 399.425 228.056C399.636 226.846 399.531 225.795 399.425 225.111C400.321 224.27 400.585 223.008 400.11 221.956C399.531 220.747 398.108 220.168 396.738 220.589C396.738 220.431 396.58 219.064 395.369 218.328C394.368 217.697 392.998 217.802 391.997 218.538C390.416 217.329 389.099 217.013 388.15 216.961C387.044 216.908 386.517 217.171 383.883 217.644C381.67 218.223 381.512 218.118 380.88 218.275Z" fill="white"/>
<path d="M394.103 240.464C395.525 236.94 397.316 233.733 399.266 230.473C400.267 228.79 401.426 226.687 400.056 224.846C396.948 220.85 392.733 225.951 391.415 228.58C390.941 229.474 392.311 230.262 392.785 229.368C393.576 227.791 394.471 225.845 396.315 225.32C396.842 225.057 397.369 225.057 397.949 225.214C398.107 226.424 398.265 227.633 398.476 228.843C398.318 229.526 397.369 230.63 397 231.261C395.314 234.048 393.944 236.993 392.68 239.99C392.206 240.989 393.734 241.357 394.103 240.464Z" fill="black"/>
<path d="M376.874 247.249C376.083 241.623 375.978 235.891 376.61 230.265C377.19 225.111 378.296 217.276 385.462 218.749C386.463 218.959 386.884 217.434 385.883 217.224C380.246 216.067 376.716 220.063 375.767 225.164C374.345 232.578 374.292 240.15 375.346 247.67C375.504 248.669 377.032 248.248 376.874 247.249Z" fill="black"/>
<path d="M383.46 223.006C384.039 221.639 384.671 220.219 385.778 219.167C387.675 217.327 390.098 218.326 392.153 219.325C393.049 219.798 393.839 218.431 392.943 217.958C390.783 216.854 388.36 215.802 386.041 217.011C384.039 218.063 382.985 220.219 382.142 222.165C381.721 223.164 383.091 223.952 383.46 223.006Z" fill="black"/>
<path d="M388.149 223.479C390.098 220.955 392.68 218.326 396.052 220.324C396.948 220.85 397.738 219.483 396.842 218.957C392.838 216.591 389.466 219.167 387.042 222.322C386.41 223.164 387.517 224.268 388.149 223.479Z" fill="black"/>
<path d="M391.679 224.636C392.68 223.584 393.734 222.48 395.104 221.954C396.737 221.271 399.74 221.691 399.108 224.163C398.897 225.162 400.373 225.582 400.636 224.583C401.163 222.427 399.74 220.429 397.58 220.061C394.682 219.535 392.417 221.639 390.572 223.532C389.888 224.268 390.994 225.372 391.679 224.636Z" fill="black"/>
<path d="M392.311 239.675C390.467 243.619 392.733 247.615 394.313 251.243C396.526 256.344 398.845 261.444 401.69 266.177C405.378 272.382 413.386 283.529 421.764 277.167C422.554 276.536 421.764 275.169 420.973 275.8C412.912 281.952 405.43 269.542 402.164 263.811C400.267 260.445 398.581 256.975 397 253.452C395.42 249.929 391.89 244.407 393.734 240.464C394.103 239.57 392.733 238.728 392.311 239.675Z" fill="black"/>
<path d="M399.108 235.679C394.471 251.401 408.697 263.6 413.913 277.062C414.282 278.008 415.81 277.587 415.441 276.641C410.383 263.6 396.157 251.296 400.636 236.099C400.899 235.1 399.371 234.679 399.108 235.679Z" fill="black"/>
<path d="M375.293 246.826C377.98 261.549 384.25 275.484 393.47 287.315C397.949 292.994 403.059 298.516 410.119 300.829C416.126 302.775 424.398 303.774 429.983 300.146C436.094 296.254 436.885 288.314 437.148 281.741C437.201 280.742 435.62 280.742 435.567 281.741C435.251 290.207 433.355 299.567 423.291 300.777C414.018 301.881 405.378 298.2 399.108 291.522C387.464 279.165 379.824 263.022 376.768 246.405C376.663 245.406 375.135 245.827 375.293 246.826Z" fill="black"/>
<path d="M400.162 237.782C401.848 231.051 409.961 230.578 415.019 233.523C420.183 236.52 423.713 241.936 426.295 247.142C428.982 252.61 430.931 258.5 432.828 264.284C434.988 270.909 436.621 277.85 435.515 284.844C435.357 285.843 436.885 286.264 437.043 285.265C438.307 277.272 436.305 269.542 433.724 261.97C431.353 255.082 429.034 247.983 425.083 241.778C421.763 236.52 416.811 231.051 410.278 230.157C405.22 229.474 399.845 232.208 398.581 237.361C398.37 238.36 399.898 238.781 400.162 237.782Z" fill="black"/>
<path opacity="0.1" d="M382.828 217.592C387.043 215.909 391.153 217.749 392.154 218.223C389.204 222.114 382.934 231.526 382.407 244.83C381.617 263.76 392.944 276.327 396.949 280.797C402.112 286.528 408.856 293.995 417.549 292.943C422.449 292.365 427.086 289.105 429.457 284.951C431.828 280.797 431.67 276.275 428.825 264.601C424.451 246.933 419.657 236.574 420.342 236.259C421.027 235.943 426.717 244.83 430.985 255.977C431.406 257.134 434.936 266.494 436.201 279.377C436.991 287.317 436.306 290.577 434.673 293.469C432.144 297.939 428.034 299.937 426.454 300.621C420.078 303.302 413.967 301.409 411.069 300.41C400.689 296.94 395.157 288.526 389.572 280.061C380.984 266.967 378.613 255.767 376.348 244.987C374.767 237.521 373.713 228.844 377.665 222.482C378.35 221.167 379.878 218.801 382.828 217.592Z" fill="#494949"/>
<path d="M306.747 191.982C306.589 194.453 307.484 197.24 309.381 202.814C311.488 209.071 313.754 215.749 319.444 222.322C323.08 226.529 327.505 231.682 335.04 233.155C340.993 234.311 345.999 232.629 348.528 231.577C349.107 233.155 349.898 234.837 350.899 236.572C353.533 241.2 356.8 244.46 359.381 246.616C361.331 246.406 365.124 245.617 368.391 242.672C370.92 240.358 372.132 237.624 372.869 235.836C373.765 233.733 374.239 231.893 374.45 230.578C372.869 229.631 371.131 228.369 369.445 226.634C364.176 221.271 362.753 214.908 362.332 211.858C363.017 205.811 363.754 199.712 364.439 193.664C365.23 193.77 366.916 193.875 368.391 192.876C370.024 191.771 370.34 189.931 370.762 187.88C371.183 185.83 371.658 183.2 370.499 180.203C369.972 178.889 368.286 174.682 364.703 174.419C362.279 174.209 359.803 175.839 358.38 178.363C355.324 175.418 348.791 170.212 339.624 169.371C323.765 167.899 307.642 180.256 306.747 191.982Z" fill="white"/>
<path d="M330.14 216.012C329.718 217.117 330.93 218.694 331.826 219.483C334.302 221.639 338.675 221.534 341.836 220.061C346.262 218.011 347.685 213.594 348.317 211.595C349.055 209.387 350.003 206.495 348.475 203.918C347.158 201.657 344.84 200.868 343.944 200.605C343.048 202.446 342.363 203.813 341.836 204.707C341.204 205.811 340.993 206.179 340.625 207.021C340.098 208.125 340.045 208.546 339.307 209.545C336.304 213.436 332.195 214.856 332.195 214.856C331.246 215.066 330.403 215.276 330.14 216.012Z" fill="black"/>
<path d="M307.589 198.292C311.752 211.28 316.968 226.424 330.403 232.524C335.883 234.995 342.416 235.468 348.001 233.049C354.271 230.368 357.959 224.163 360.488 218.168C363.807 210.333 365.23 201.815 364.703 193.349C364.65 192.35 363.07 192.35 363.122 193.349C363.649 202.183 362.068 211.07 358.328 219.115C354.692 226.95 348.949 233.207 339.729 233.102C321.183 232.892 313.649 212.489 309.012 197.924C308.801 196.872 307.326 197.293 307.589 198.292Z" fill="black"/>
<path d="M358.96 179.835C359.012 176.68 362.279 174.787 365.177 175.681C367.864 176.575 369.55 179.204 370.13 181.833C370.656 184.357 370.446 187.302 369.655 189.721C369.023 191.719 368.233 192.771 365.809 192.771C364.966 192.771 364.123 192.455 363.227 192.455C362.226 192.455 362.226 194.033 363.227 194.033C365.019 194.033 366.758 194.874 368.496 193.98C369.761 193.349 370.498 192.087 371.025 190.772C372.395 187.197 372.553 182.359 370.814 178.836C369.392 175.944 366.336 173.472 362.964 173.84C359.855 174.156 357.432 176.68 357.379 179.782C357.379 180.834 358.96 180.834 358.96 179.835Z" fill="black"/>
<path d="M362.068 208.651C361.91 217.327 365.756 225.635 372.606 231.051C373.396 231.682 374.502 230.578 373.712 229.947C367.179 224.794 363.491 217.011 363.649 208.651C363.649 207.652 362.068 207.652 362.068 208.651Z" fill="black"/>
<path d="M348.475 232.208C350.477 237.729 353.744 242.567 358.117 246.458C358.854 247.142 360.014 246.037 359.223 245.354C355.008 241.62 351.9 237.046 349.95 231.787C349.634 230.841 348.106 231.261 348.475 232.208Z" fill="black"/>
<path d="M358.485 246.984C363.016 248.614 367.548 244.775 370.34 241.568C373.291 238.203 375.872 233.838 374.608 229.263C374.344 228.264 372.816 228.685 373.08 229.684C374.134 233.68 371.763 237.572 369.181 240.464C366.757 243.198 362.806 246.879 358.854 245.459C357.958 245.091 357.537 246.616 358.485 246.984Z" fill="black"/>
<path d="M313.49 192.771C312.806 190.825 314.386 188.722 315.545 187.355C317.284 185.199 319.971 184.62 321.973 186.829C324.291 189.353 324.924 193.875 325.24 197.135C325.451 199.396 324.66 202.288 325.977 204.286C327.4 206.442 330.034 207.704 332.511 208.177C333.512 208.388 333.933 206.863 332.932 206.653C331.615 206.39 330.456 205.969 329.297 205.233C327.4 203.971 326.978 202.604 326.926 200.343C326.873 198.397 326.82 196.504 326.504 194.558C325.977 191.351 325.082 187.249 322.447 185.093C320.234 183.253 317.495 183.306 315.335 185.146C313.28 186.934 310.909 190.352 311.91 193.139C312.331 194.138 313.859 193.717 313.49 192.771Z" fill="black"/>
<path d="M328.085 181.412C328.454 175.05 336.409 172.736 340.098 177.942C340.677 178.783 342.047 177.995 341.467 177.153C336.884 170.633 326.978 173.42 326.504 181.412C326.452 182.412 328.032 182.412 328.085 181.412Z" fill="black"/>
<path d="M320.919 196.977C320.182 195.978 319.76 194.874 319.707 193.664C319.286 193.875 318.917 194.138 318.496 194.348C319.707 195.137 320.34 196.399 320.287 197.819C320.603 197.556 320.972 197.293 321.288 197.082C319.971 196.609 319.128 195.137 319.391 193.77C319.023 193.927 318.601 194.085 318.232 194.243C318.864 194.611 319.391 195.137 319.76 195.82C319.918 196.136 320.024 196.451 320.076 196.819C320.076 197.082 320.076 196.767 320.024 196.662C319.918 196.451 319.813 196.294 319.707 196.083C319.286 195.137 317.916 195.978 318.338 196.872C318.654 197.608 319.181 198.397 320.129 198.45C320.919 198.502 321.604 197.976 321.71 197.188C321.868 195.452 320.498 193.717 319.075 192.928C318.654 192.665 318.021 192.876 317.916 193.402C317.495 195.663 318.759 197.871 320.919 198.66C321.446 198.818 321.92 198.397 321.92 197.924C321.973 195.926 321.025 194.138 319.339 193.086C318.864 192.771 318.127 193.191 318.127 193.77C318.18 195.242 318.654 196.662 319.549 197.871C320.182 198.607 321.551 197.819 320.919 196.977Z" fill="black"/>
<path d="M335.672 186.829C335.408 186.513 335.198 186.145 335.092 185.724C335.092 185.619 334.987 184.988 335.092 184.936C335.198 184.883 335.461 185.724 335.514 185.777C335.619 186.198 335.566 186.671 335.356 187.039C335.725 186.934 336.093 186.829 336.462 186.776C335.145 186.04 334.513 184.673 334.723 183.2C334.302 183.411 333.933 183.674 333.512 183.884C334.987 184.515 335.83 186.04 335.461 187.617C335.777 187.46 336.093 187.249 336.409 187.091C335.619 186.829 334.987 186.145 334.829 185.304C334.829 185.251 334.829 184.778 334.776 184.778C334.671 184.83 334.565 184.883 334.407 184.936C334.46 185.041 334.565 185.198 334.618 185.304C334.829 185.882 334.829 186.46 334.776 187.091C335.25 186.881 335.672 186.723 336.146 186.513C335.672 186.145 335.303 185.724 335.04 185.146C334.565 184.252 333.196 185.041 333.67 185.935C333.986 186.566 334.46 187.144 335.04 187.617C335.619 188.091 336.304 187.775 336.409 187.039C336.515 185.987 336.409 184.567 335.619 183.779C334.987 183.148 333.828 183.095 333.406 184.042C332.563 185.882 334.355 188.038 335.988 188.616C336.409 188.774 336.884 188.459 336.936 188.091C337.516 185.882 336.409 183.463 334.249 182.569C333.67 182.306 333.143 182.622 333.037 183.253C332.774 185.251 333.828 187.197 335.566 188.196C335.883 188.406 336.462 188.301 336.673 187.933C337.094 186.934 337.2 185.935 336.831 184.936C336.515 184.147 335.83 183.305 334.934 183.411C332.616 183.674 333.617 186.986 334.565 188.038C335.25 188.722 336.357 187.565 335.672 186.829Z" fill="black"/>
<path d="M349.423 232.05C349.423 232.103 349.423 232.103 349.371 232.155C349.687 231.998 350.003 231.787 350.319 231.63C350.266 231.63 350.214 231.577 350.161 231.577C350.319 231.945 350.477 232.366 350.635 232.734C350.741 232.524 352.163 231.84 352.585 231.472C353.533 230.683 354.323 229.631 355.061 228.632C356.694 226.476 357.906 224.11 358.907 221.639C358.38 221.481 357.906 221.376 357.379 221.218C355.799 225.74 354.692 232.05 350.266 234.732C350.635 235.1 351.004 235.468 351.373 235.836C352.427 234.259 353.48 232.629 354.534 231.051C355.008 230.315 353.902 229.421 353.27 230.105C352.427 230.999 351.531 231.945 350.688 232.839C351.057 233.207 351.425 233.575 351.794 233.943C352.585 232.997 353.322 231.998 354.007 230.999C354.534 230.262 353.375 229.369 352.743 230.052C352.005 230.841 351.267 231.419 350.319 231.893C350.741 232.103 351.109 232.366 351.531 232.576C351.531 232.418 351.478 232.261 351.478 232.103C351.373 231.104 349.792 231.104 349.898 232.103C349.898 232.261 349.95 232.418 349.95 232.576C350.003 233.155 350.582 233.575 351.162 233.26C352.216 232.681 353.059 232.05 353.902 231.156C353.48 230.841 353.059 230.525 352.637 230.21C352.005 231.104 351.373 231.998 350.688 232.839C350.056 233.628 351.109 234.732 351.794 233.943C352.637 233.049 353.533 232.103 354.376 231.209C353.954 230.893 353.533 230.578 353.111 230.262C352.058 231.84 351.004 233.47 349.95 235.048C349.529 235.731 350.372 236.52 351.057 236.152C355.904 233.207 357.168 226.687 358.907 221.691C359.223 220.692 357.748 220.377 357.379 221.271C356.273 223.952 354.85 226.582 352.953 228.79C352.058 229.842 350.635 230.42 349.792 231.367C349.581 231.577 349.371 231.63 349.265 231.893C349.002 232.366 349.213 232.839 349.739 233.049C349.792 233.049 349.845 233.102 349.898 233.102C350.319 233.26 350.741 232.944 350.846 232.576C350.846 232.524 350.846 232.524 350.899 232.471C351.32 231.524 349.792 231.104 349.423 232.05Z" fill="black"/>
<path d="M355.272 230.473C355.746 229.947 356.062 229.421 356.22 228.79C356.483 227.844 355.272 227.528 354.798 228.159C353.691 229.631 352.585 231.104 351.478 232.576C350.846 233.365 352.216 234.154 352.848 233.365C353.955 231.893 355.061 230.42 356.167 228.948C355.693 228.738 355.219 228.527 354.745 228.317C354.639 228.685 354.481 229 354.218 229.316C353.48 230.157 354.639 231.262 355.272 230.473Z" fill="black"/>
<path d="M330.93 217.432C329.455 214.487 331.035 213.383 333.986 212.594C334.355 212.489 334.724 212.437 335.04 212.279C336.304 211.7 337.042 210.438 337.569 209.229C338.412 207.441 338.886 205.496 339.992 203.866C342.31 200.343 346.42 200.5 347.737 204.707C349.054 208.914 347.421 213.593 344.629 216.801C343.259 218.379 341.573 219.851 339.571 220.534C337.832 221.165 336.304 220.955 334.618 220.219C333.406 219.693 331.193 218.641 330.877 217.274C330.667 216.275 329.139 216.696 329.349 217.695C329.929 220.429 334.039 222.112 336.515 222.48C339.202 222.901 341.731 221.586 343.786 219.903C348.37 216.117 351.215 209.439 349.002 203.655C346.631 197.398 340.203 199.712 337.832 204.654C337.094 206.179 336.726 208.756 335.514 209.86C333.986 211.28 332.036 210.754 330.456 211.858C328.243 213.436 328.454 216.223 329.56 218.379C330.034 219.167 331.404 218.379 330.93 217.432Z" fill="black"/>
<path d="M329.876 215.802C338.043 215.592 341.994 208.02 343.786 201.079C344.049 200.08 342.521 199.659 342.258 200.658C340.677 206.863 337.252 214.014 329.876 214.224C328.875 214.277 328.875 215.855 329.876 215.802Z" fill="black"/>
<path d="M308.222 197.45C307.273 197.976 301.53 191.719 299.107 183.358C297.315 177.258 297.842 171.842 298.475 168.424C299.37 165.69 300.635 162.745 302.373 159.748C309.855 146.918 321.657 140.871 327.769 138.294C326.504 139.504 325.029 141.081 323.659 143.079C321.762 145.708 320.551 148.18 319.76 150.231C321.552 148.706 323.606 147.181 325.819 145.708C330.772 142.396 335.566 140.029 339.729 138.347C339.097 141.029 338.412 143.71 337.779 146.339C339.255 145.498 341.309 144.289 343.838 143.079C346.631 141.765 352.374 139.03 353.269 140.24C353.533 140.608 353.217 141.029 352.743 142.553C352.11 144.552 351.9 146.234 351.794 147.339C353.428 147.076 355.272 146.865 357.274 146.813C359.487 146.708 361.489 146.813 363.28 146.97C362.648 149.389 362.016 151.756 361.383 154.174C362.648 154.648 364.439 155.542 366.283 157.014C371.236 161.063 372.658 166.531 373.027 168.687C373.818 173.84 372.553 178.152 371.605 180.519C369.076 175.155 364.07 173.052 361.225 174.366C359.487 175.155 357.485 177.679 357.695 180.256C357.748 180.834 357.906 181.36 358.064 181.728C356.22 180.045 353.428 177.784 349.792 175.681C346.157 173.578 342.1 171.211 336.726 170.528C326.61 169.213 318.707 174.734 316.599 176.259C313.332 178.573 308.011 182.306 307.063 188.248C306.114 193.244 308.959 197.082 308.222 197.45Z" fill="#5222D0"/>
<path opacity="0.11" d="M348.317 174.366C349.95 178.047 352.163 183.779 353.375 190.983C354.639 198.134 356.22 207.336 352.374 217.537C351.057 221.008 347.948 227.686 340.572 233.943C342.31 233.891 345.314 233.575 348.475 231.892C353.638 229.211 355.904 224.741 356.589 223.164C359.065 225.582 362.384 229.368 364.913 234.732C366.336 237.729 367.232 240.516 367.759 242.83C369.181 241.568 371.816 238.833 373.027 234.522C373.502 232.839 373.66 231.314 373.66 230.052C370.604 228.369 368.654 226.319 367.548 225.004C367.074 224.426 362.384 218.536 362.648 210.386C362.753 207.441 363.385 207.389 363.86 202.866C364.281 198.818 364.07 195.4 363.86 193.139C366.547 194.243 367.917 193.717 368.549 193.349C369.761 192.613 370.077 191.298 371.183 184.62C371.763 181.044 372.079 179.257 372.184 178.31C372.817 173.209 373.133 170.633 372.817 168.582C371.921 162.745 368.18 158.854 366.916 157.645C364.808 155.594 362.648 154.437 361.225 153.806C361.858 151.598 362.437 149.337 363.069 147.128C360.066 150.651 357.274 153.07 355.377 154.648C350.635 158.434 347.895 159.327 344.629 162.956C342.047 165.795 340.572 168.687 339.729 170.633C342.627 171.947 345.472 173.157 348.317 174.366Z" fill="#494949"/>
<path opacity="0.17" d="M326.609 138.873C324.818 139.661 320.603 141.87 317.653 146.55C316.915 147.707 315.282 150.599 314.808 154.648C314.281 159.117 315.387 162.64 316.019 164.376C316.23 160.011 317.284 152.965 321.499 145.708C323.132 142.974 324.924 140.713 326.609 138.873Z" fill="#494949"/>
<path opacity="0.08" d="M363.86 193.401C363.701 193.349 363.385 193.927 362.226 197.924C360.646 203.34 359.803 207.336 359.328 209.334C358.644 212.226 357.484 216.328 355.324 221.271C359.065 222.007 362.806 222.743 366.547 223.427C365.177 220.429 363.543 216.117 362.911 210.754C361.91 201.552 364.386 193.507 363.86 193.401Z" fill="#494949"/>
</svg>
